JosefinSlab-Light-TTF.ufo
<glyph name="dollar" format="1">
  <advance width="567"/>
  <unicode hex="0024"/>
  <outline>
    <contour>
      <point x="367" y="546" type="line" name="sh01"/>
      <point x="367" y="643" type="line"/>
      <point x="349" y="656"/>
      <point x="291" y="675"/>
      <point x="252" y="677" type="qcurve" name="sv02"/>
      <point x="252" y="384" type="line" name="sh03"/>
      <point x="288" y="373"/>
      <point x="358" y="348" name="fh01"/>
      <point x="386.5" y="327.0" type="qcurve" smooth="yes" name="inserted"/>
      <point x="415" y="306" name="fh02"/>
      <point x="451" y="238"/>
      <point x="452" y="186" type="qcurve" name="dh02"/>
      <point x="453" y="143"/>
      <point x="422" y="73" name="fh03"/>
      <point x="394.5" y="48.0" type="qcurve" smooth="yes" name="inserted"/>
      <point x="367" y="23" name="fh04"/>
      <point x="294" y="-6"/>
      <point x="252" y="-8" type="qcurve" name="sv03"/>
      <point x="252" y="-68" type="line" name="ih02"/>
      <point x="225" y="-68" type="line" name="sh04"/>
      <point x="225" y="-7" type="line" name="ab01"/>
      <point x="188" y="-6"/>
      <point x="129" y="11"/>
      <point x="106.0" y="22.5" type="qcurve" smooth="yes" name="inserted"/>
      <point x="83" y="34"/>
      <point x="50" y="60"/>
      <point x="41" y="70" type="qcurve"/>
      <point x="41" y="173" type="line" name="dh01"/>
      <point x="68" y="173" type="line" name="sh05"/>
      <point x="68" y="83" type="line"/>
      <point x="94" y="57" name="fh05"/>
      <point x="171" y="22" name="fh06"/>
      <point x="225" y="20" type="qcurve" name="sh06"/>
      <point x="225" y="362" type="line" name="sv05"/>
      <point x="194" y="371" name="fh07"/>
      <point x="137" y="393" name="fh08"/>
      <point x="115.0" y="410.0" type="qcurve" smooth="yes" name="inserted"/>
      <point x="93" y="427" name="fh09"/>
      <point x="65" y="478"/>
      <point x="63" y="517" type="qcurve" name="ih03"/>
      <point x="61" y="549"/>
      <point x="78" y="613" name="fh10"/>
      <point x="98.0" y="639.5" type="qcurve" smooth="yes" name="inserted"/>
      <point x="118" y="666" name="fh11"/>
      <point x="181" y="701"/>
      <point x="225" y="703" type="qcurve" name="sh08"/>
      <point x="225" y="764" type="line" name="sv06"/>
      <point x="252" y="764" type="line"/>
      <point x="252" y="704" type="line" name="sh09"/>
      <point x="268" y="703"/>
      <point x="305" y="698"/>
      <point x="323.5" y="693.0" type="qcurve" smooth="yes" name="inserted"/>
      <point x="342" y="688"/>
      <point x="378" y="670"/>
      <point x="394" y="657" type="qcurve"/>
      <point x="394" y="546" type="line" name="ih01"/>
    </contour>
    <contour>
      <point x="424" y="183" type="qcurve" name="sh10"/>
      <point x="424" y="227"/>
      <point x="394" y="285" name="fh12"/>
      <point x="370.0" y="303.5" type="qcurve" smooth="yes" name="inserted"/>
      <point x="346" y="322" name="fv01"/>
      <point x="284" y="345"/>
      <point x="252" y="354" type="qcurve" name="sv04"/>
      <point x="252" y="20" type="line" name="sh02"/>
      <point x="286" y="22"/>
      <point x="348" y="46"/>
      <point x="372.0" y="67.0" type="qcurve" smooth="yes" name="inserted"/>
      <point x="396" y="88" name="fh13"/>
      <point x="424" y="147"/>
    </contour>
    <contour>
      <point x="90" y="527" type="qcurve" name="sh11"/>
      <point x="90" y="495"/>
      <point x="112" y="451" name="fh14"/>
      <point x="130.5" y="435.5" type="qcurve" smooth="yes" name="inserted"/>
      <point x="149" y="420" name="fh15"/>
      <point x="198" y="400"/>
      <point x="225" y="392" type="qcurve" name="sh07"/>
      <point x="225" y="675" type="line" name="sv01"/>
      <point x="191" y="673"/>
      <point x="141" y="647" name="fh16"/>
      <point x="124.0" y="627.0" type="qcurve" smooth="yes" name="inserted"/>
      <point x="107" y="607" name="fh17"/>
      <point x="90" y="555"/>
    </contour>
  </outline>
</glyph>
<glyph name="percent" format="1">
  <advance width="726"/>
  <unicode hex="0025"/>
  <outline>
    <contour>
      <point x="436" y="112" type="qcurve" name="sh01"/>
      <point x="436" y="77"/>
      <point x="486" y="27"/>
      <point x="522" y="27" type="qcurve" name="sv01"/>
      <point x="558" y="27"/>
      <point x="608" y="77"/>
      <point x="608" y="112" type="qcurve" name="sh02"/>
      <point x="608" y="147"/>
      <point x="558" y="197"/>
      <point x="522" y="197" type="qcurve" name="sv02"/>
      <point x="486" y="197"/>
      <point x="436" y="147"/>
    </contour>
    <contour>
      <point x="522" y="0" type="qcurve" name="ab01"/>
      <point x="499" y="0"/>
      <point x="457" y="18" name="fh01"/>
      <point x="441.5" y="33.0" type="qcurve" smooth="yes" name="inserted"/>
      <point x="426" y="48" name="fh02"/>
      <point x="408" y="89"/>
      <point x="408" y="113" type="qcurve" name="ah02"/>
      <point x="408" y="136"/>
      <point x="426" y="177" name="fh03"/>
      <point x="441.5" y="192.0" type="qcurve" smooth="yes" name="inserted"/>
      <point x="457" y="207" name="fh04"/>
      <point x="499" y="224"/>
      <point x="522" y="224" type="qcurve" name="sv03"/>
      <point x="545" y="224"/>
      <point x="586" y="207" name="fh05"/>
      <point x="602.0" y="192.0" type="qcurve" smooth="yes" name="inserted"/>
      <point x="618" y="177" name="fh06"/>
      <point x="636" y="136"/>
      <point x="636" y="113" type="qcurve" name="sh03"/>
      <point x="636" y="89"/>
      <point x="618" y="48" name="fh07"/>
      <point x="602.0" y="33.0" type="qcurve" smooth="yes" name="inserted"/>
      <point x="586" y="18" name="fh08"/>
      <point x="545" y="0"/>
    </contour>
    <contour>
      <point x="132" y="388" type="qcurve" name="sh04"/>
      <point x="132" y="353"/>
      <point x="182" y="304"/>
      <point x="218" y="304" type="qcurve" name="sv04"/>
      <point x="254" y="304"/>
      <point x="304" y="353"/>
      <point x="304" y="388" type="qcurve" name="sh05"/>
      <point x="304" y="423"/>
      <point x="254" y="473"/>
      <point x="218" y="473" type="qcurve" name="sv05"/>
      <point x="182" y="473"/>
      <point x="132" y="423"/>
    </contour>
    <contour>
      <point x="218" y="276" type="qcurve" name="sv06"/>
      <point x="195" y="276"/>
      <point x="153" y="294" name="fh09"/>
      <point x="137.5" y="309.0" type="qcurve" smooth="yes" name="inserted"/>
      <point x="122" y="324" name="fh10"/>
      <point x="104" y="365"/>
      <point x="104" y="389" type="qcurve" name="ah01"/>
      <point x="104" y="412"/>
      <point x="122" y="453" name="fh11"/>
      <point x="137.5" y="468.0" type="qcurve" smooth="yes" name="inserted"/>
      <point x="153" y="483" name="fh12"/>
      <point x="195" y="501"/>
      <point x="218" y="501" type="qcurve" name="av01"/>
      <point x="241" y="501"/>
      <point x="282" y="483" name="fh13"/>
      <point x="298.0" y="468.0" type="qcurve" smooth="yes" name="inserted"/>
      <point x="314" y="453" name="fh14"/>
      <point x="332" y="412"/>
      <point x="332" y="389" type="qcurve" name="sh06"/>
      <point x="332" y="365"/>
      <point x="314" y="324" name="fh15"/>
      <point x="298.0" y="309.0" type="qcurve" smooth="yes" name="inserted"/>
      <point x="282" y="294" name="fh16"/>
      <point x="241" y="276"/>
    </contour>
    <contour>
      <point x="201" y="0" type="line" name="ah03"/>
      <point x="276" y="126"/>
      <point x="424" y="374"/>
      <point x="499" y="500" type="qcurve" name="sh08"/>
      <point x="530" y="500" type="line" name="sh07"/>
      <point x="455" y="374"/>
      <point x="307" y="126"/>
      <point x="232" y="0" type="qcurve" name="sh09"/>
    </contour>
  </outline>
</glyph>
<glyph name="parenright" format="1">
  <advance width="400"/>
  <unicode hex="0029"/>
  <outline>
    <contour>
      <point x="286" y="291" type="qcurve" name="ah01"/>
      <point x="286" y="216"/>
      <point x="258" y="80"/>
      <point x="235.0" y="22.0" type="qcurve" smooth="yes" name="inserted"/>
      <point x="212" y="-36"/>
      <point x="152" y="-131"/>
      <point x="121" y="-164" type="qcurve" name="sh03"/>
      <point x="116" y="-158"/>
      <point x="108" y="-147"/>
      <point x="104" y="-141" type="qcurve" name="sh04"/>
      <point x="133" y="-108"/>
      <point x="188" y="-18"/>
      <point x="210.0" y="37.0" type="qcurve" smooth="yes" name="inserted"/>
      <point x="232" y="92"/>
      <point x="258" y="220"/>
      <point x="258" y="291" type="qcurve" name="sh05"/>
      <point x="258" y="362"/>
      <point x="232" y="490"/>
      <point x="210.0" y="545.0" type="qcurve" smooth="yes" name="inserted"/>
      <point x="188" y="600"/>
      <point x="133" y="690"/>
      <point x="104" y="723" type="qcurve" name="sh01"/>
      <point x="108" y="729"/>
      <point x="116" y="740"/>
      <point x="121" y="746" type="qcurve" name="sh02"/>
      <point x="152" y="713"/>
      <point x="212" y="618"/>
      <point x="235.0" y="560.0" type="qcurve" smooth="yes" name="inserted"/>
      <point x="258" y="502"/>
      <point x="286" y="366"/>
    </contour>
  </outline>
</glyph>
<glyph name="asterisk" format="1">
  <advance width="335"/>
  <unicode hex="002A"/>
  <outline>
    <contour>
      <point x="196" y="575" type="qcurve" name="iv01"/>
      <point x="221" y="561"/>
      <point x="272" y="531"/>
      <point x="298" y="517" type="qcurve" name="sh01"/>
      <point x="294" y="510"/>
      <point x="286" y="497"/>
      <point x="282" y="490" type="qcurve" name="fh01"/>
      <point x="256" y="505" name="fh02"/>
      <point x="207" y="535"/>
      <point x="181" y="550" type="qcurve" name="dh02"/>
      <point x="180" y="521"/>
      <point x="180" y="463"/>
      <point x="179" y="434" type="qcurve" name="sv01"/>
      <point x="152" y="434" type="line"/>
      <point x="152" y="550" type="line" name="dh01"/>
      <point x="126" y="535"/>
      <point x="77" y="506"/>
      <point x="52" y="492" type="qcurve"/>
      <point x="48" y="499"/>
      <point x="40" y="512"/>
      <point x="36" y="519" type="qcurve" name="sh02"/>
      <point x="62" y="533"/>
      <point x="112" y="562"/>
      <point x="137" y="576" type="qcurve" name="iv02"/>
      <point x="112" y="591"/>
      <point x="62" y="621"/>
      <point x="36" y="636" type="qcurve" name="sh03"/>
      <point x="40" y="642"/>
      <point x="47" y="654"/>
      <point x="50" y="660" type="qcurve"/>
      <point x="152" y="600" type="line" name="sh04"/>
      <point x="152" y="720" type="line" name="av01"/>
      <point x="183" y="720" type="line"/>
      <point x="182" y="690"/>
      <point x="182" y="630"/>
      <point x="181" y="600" type="qcurve" name="sh05"/>
      <point x="207" y="614" name="fv01"/>
      <point x="259" y="644"/>
      <point x="285" y="659" type="qcurve" name="fv02"/>
      <point x="289" y="653"/>
      <point x="296" y="641"/>
      <point x="299" y="635" type="qcurve" name="sh06"/>
      <point x="273" y="620"/>
      <point x="222" y="590" name="fv03"/>
    </contour>
  </outline>
</glyph>
<glyph name="comma" format="1">
  <advance width="200"/>
  <unicode hex="002C"/>
  <outline>
    <contour>
      <point x="134" y="86" type="line" name="sh01"/>
      <point x="112" y="34"/>
      <point x="70" y="-68"/>
      <point x="48" y="-120" type="qcurve" name="sh02"/>
      <point x="22" y="-120" type="line" name="ah01"/>
      <point x="42" y="-68"/>
      <point x="79" y="34"/>
      <point x="99" y="86" type="qcurve" name="sh03"/>
    </contour>
  </outline>
</glyph>
<glyph name="one" format="1">
  <advance width="257"/>
  <unicode hex="0031"/>
  <outline>
    <contour>
      <point x="58" y="27" type="line" name="sh01"/>
      <point x="138" y="27" type="line" name="dh01"/>
      <point x="138" y="623" type="line"/>
      <point x="34" y="623" type="line" name="sh02"/>
      <point x="34" y="650" type="line" name="at01"/>
      <point x="166" y="650" type="line"/>
      <point x="166" y="27" type="line" name="dh02"/>
      <point x="246" y="27" type="line" name="sh03"/>
      <point x="246" y="0" type="line"/>
      <point x="58" y="0" type="line" name="ab01"/>
    </contour>
  </outline>
</glyph>
<glyph name="two" format="1">
  <advance width="500"/>
  <unicode hex="0032"/>
  <outline>
    <contour>
      <point x="122" y="27" type="qcurve" name="sh02"/>
      <point x="431" y="27" type="line" name="sv01"/>
      <point x="431" y="136" type="line" name="sh04"/>
      <point x="458" y="136" type="line" name="sh03"/>
      <point x="458" y="0" type="line" name="ab01"/>
      <point x="53" y="0" type="line" name="sh01"/>
      <point x="117" y="62"/>
      <point x="237" y="182" name="iv01"/>
      <point x="283.5" y="239.0" type="qcurve" smooth="yes" name="inserted"/>
      <point x="330" y="296" name="fh01"/>
      <point x="386" y="402"/>
      <point x="386" y="449" type="qcurve" name="sh05"/>
      <point x="386" y="501"/>
      <point x="356" y="571" name="fh02"/>
      <point x="333.0" y="592.0" type="qcurve" smooth="yes" name="inserted"/>
      <point x="310" y="613" name="fh03"/>
      <point x="257" y="631"/>
      <point x="233" y="631" type="qcurve" name="sv02"/>
      <point x="186" y="631"/>
      <point x="125" y="597" name="fh04"/>
      <point x="107.5" y="572.5" type="qcurve" smooth="yes" name="inserted"/>
      <point x="90" y="548" name="fh05"/>
      <point x="77" y="490"/>
      <point x="77" y="466" type="qcurve" name="sh06"/>
      <point x="77.0" y="431.5" name="inserted"/>
      <point x="97.0" y="375.5"/>
      <point x="117" y="354" type="qcurve" name="sh07"/>
      <point x="99" y="338" type="line" name="sv03"/>
      <point x="76" y="361"/>
      <point x="49" y="426"/>
      <point x="49" y="466" type="qcurve" name="dh01"/>
      <point x="49" y="506"/>
      <point x="73" y="576" name="fh06"/>
      <point x="96.5" y="602.0" type="qcurve" smooth="yes" name="inserted"/>
      <point x="120" y="628" name="fh07"/>
      <point x="188" y="658"/>
      <point x="233" y="658" type="qcurve" name="at01"/>
      <point x="273" y="658"/>
      <point x="340" y="628" name="fh08"/>
      <point x="364.0" y="601.5" type="qcurve" smooth="yes" name="inserted"/>
      <point x="388" y="575" name="fh09"/>
      <point x="414" y="503"/>
      <point x="414" y="461" type="qcurve" name="dh02"/>
      <point x="414" y="405"/>
      <point x="360" y="294"/>
      <point x="317.5" y="240.0" type="qcurve" smooth="yes" name="inserted"/>
      <point x="275" y="186" name="iv02"/>
      <point x="171" y="79"/>
    </contour>
  </outline>
</glyph>
<glyph name="three" format="1">
  <advance width="515"/>
  <unicode hex="0033"/>
  <outline>
    <contour>
      <point x="173" y="354" type="qcurve" name="ih01"/>
      <point x="371" y="622" type="line" name="sh01"/>
      <point x="130" y="622" type="line" name="sv01"/>
      <point x="130" y="559" type="line" name="sh02"/>
      <point x="103" y="559" type="line" name="ih03"/>
      <point x="103" y="650" type="line" name="at01"/>
      <point x="424" y="650" type="line" name="ih02"/>
      <point x="236" y="401" type="line" name="sh03"/>
      <point x="279" y="400"/>
      <point x="354" y="369" name="fh01"/>
      <point x="382.5" y="342.0" type="qcurve" smooth="yes" name="inserted"/>
      <point x="411" y="315" name="fh02"/>
      <point x="444" y="241"/>
      <point x="444" y="198" type="qcurve" name="dh02"/>
      <point x="444" y="155"/>
      <point x="411" y="80" name="fh03"/>
      <point x="383.0" y="52.0" type="qcurve" smooth="yes" name="inserted"/>
      <point x="355" y="24" name="fh04"/>
      <point x="280" y="-8"/>
      <point x="237" y="-8" type="qcurve" name="ab01"/>
      <point x="192" y="-8"/>
      <point x="115" y="28"/>
      <point x="86" y="59" type="qcurve" name="dh01"/>
      <point x="106" y="81" type="line" name="sh04"/>
      <point x="129" y="54"/>
      <point x="196" y="19"/>
      <point x="235" y="19" type="qcurve" name="sv02"/>
      <point x="272" y="19"/>
      <point x="338" y="48" name="fh05"/>
      <point x="363.0" y="72.5" type="qcurve" smooth="yes" name="inserted"/>
      <point x="388" y="97" name="mh01"/>
      <point x="417" y="162"/>
      <point x="417" y="198" type="qcurve" name="sh05"/>
      <point x="417" y="235"/>
      <point x="388" y="300" name="mh02"/>
      <point x="363.0" y="324.0" type="qcurve" smooth="yes" name="inserted"/>
      <point x="338" y="348" name="mh03"/>
      <point x="272" y="376"/>
      <point x="235" y="376" type="qcurve" name="mh04"/>
      <point x="218" y="376"/>
      <point x="187" y="364"/>
    </contour>
  </outline>
</glyph>
<glyph name="seven" format="1">
  <advance width="469"/>
  <unicode hex="0037"/>
  <outline>
    <contour>
      <point x="417" y="650" type="line" name="dh02"/>
      <point x="125" y="0" type="line" name="sh01"/>
      <point x="92" y="0" type="line" name="sh03"/>
      <point x="373" y="622" type="line" name="sh02"/>
      <point x="41" y="622" type="line" name="sv01"/>
      <point x="41" y="559" type="line" name="sh04"/>
      <point x="14" y="559" type="line" name="dh01"/>
      <point x="14" y="650" type="line" name="at01"/>
    </contour>
  </outline>
</glyph>
<glyph name="semicolon" format="1">
  <advance width="201"/>
  <unicode hex="003B"/>
  <outline>
    <contour>
      <point x="83" y="276" type="qcurve" name="sh03"/>
      <point x="83" y="287"/>
      <point x="99" y="303"/>
      <point x="110" y="303" type="qcurve" name="av01"/>
      <point x="120" y="303"/>
      <point x="136" y="287"/>
      <point x="136" y="276" type="qcurve" name="sh02"/>
      <point x="136" y="265"/>
      <point x="120" y="250"/>
      <point x="110" y="250" type="qcurve" name="sv01"/>
      <point x="99" y="250"/>
      <point x="83" y="265"/>
    </contour>
    <contour>
      <point x="119" y="86" type="line" name="sh01"/>
      <point x="97" y="34"/>
      <point x="55" y="-68"/>
      <point x="33" y="-120" type="qcurve" name="sh04"/>
      <point x="7" y="-120" type="line" name="ah01"/>
      <point x="27" y="-68"/>
      <point x="64" y="34"/>
      <point x="84" y="86" type="qcurve" name="sh05"/>
    </contour>
  </outline>
</glyph>
<glyph name="less" format="1">
  <advance width="680"/>
  <unicode hex="003C"/>
  <outline>
    <contour>
      <point x="553" y="21" type="qcurve" name="sh02"/>
      <point x="553" y="-15" type="line" name="sv01"/>
      <point x="443" y="48"/>
      <point x="225" y="175"/>
      <point x="115" y="238" type="qcurve" name="ah01"/>
      <point x="225" y="301"/>
      <point x="443" y="428"/>
      <point x="553" y="491" type="qcurve" name="sv02"/>
      <point x="553" y="455" type="line" name="sh01"/>
      <point x="458" y="401"/>
      <point x="270" y="292"/>
      <point x="175" y="238" type="qcurve" name="sh03"/>
      <point x="270" y="184" name="fv01"/>
      <point x="458" y="75" name="fv02"/>
    </contour>
  </outline>
</glyph>
<glyph name="equal" format="1">
  <advance width="708"/>
  <unicode hex="003D"/>
  <outline>
    <contour>
      <point x="606" y="170" type="line"/>
      <point x="606" y="142" type="line" name="sh01"/>
      <point x="100" y="142" type="line" name="ah01"/>
      <point x="100" y="170" type="line" name="sv01"/>
    </contour>
    <contour>
      <point x="606" y="364" type="line"/>
      <point x="606" y="336" type="line" name="sh02"/>
      <point x="100" y="336" type="line" name="sh03"/>
      <point x="100" y="364" type="line" name="sv02"/>
    </contour>
  </outline>
</glyph>
<glyph name="greater" format="1">
  <advance width="650"/>
  <unicode hex="003E"/>
  <outline>
    <contour>
      <point x="115" y="-15" type="qcurve" name="sv01"/>
      <point x="115" y="21" type="line" name="sh02"/>
      <point x="210" y="75" name="fv01"/>
      <point x="398" y="184"/>
      <point x="493" y="238" type="qcurve" name="sh03"/>
      <point x="398" y="292"/>
      <point x="210" y="401"/>
      <point x="115" y="455" type="qcurve" name="sv02"/>
      <point x="115" y="491" type="line" name="sh01"/>
      <point x="225" y="428"/>
      <point x="443" y="301"/>
      <point x="553" y="238" type="qcurve" name="ah01"/>
      <point x="443" y="175"/>
      <point x="225" y="48"/>
    </contour>
  </outline>
</glyph>
<glyph name="C" format="1">
  <advance width="610"/>
  <unicode hex="0043"/>
  <outline>
    <contour>
      <point x="548" y="546" type="line" name="sh01"/>
      <point x="548" y="641" type="line" name="fv01"/>
      <point x="512.5" y="661.0" name="inserted"/>
      <point x="434.5" y="681.0"/>
      <point x="392" y="681" type="qcurve" name="sv01"/>
      <point x="324" y="681"/>
      <point x="204" y="628" name="fh02"/>
      <point x="159.5" y="583.0" type="qcurve" smooth="yes" name="inserted"/>
      <point x="115" y="538" name="fh03"/>
      <point x="63" y="417"/>
      <point x="63" y="348" type="qcurve" name="sh02"/>
      <point x="63" y="280"/>
      <point x="115" y="160" name="fh04"/>
      <point x="159.0" y="115.5" type="qcurve" smooth="yes" name="inserted"/>
      <point x="203" y="71" name="fh05"/>
      <point x="322" y="19" name="fv02"/>
      <point x="390" y="19" type="qcurve" name="sv02"/>
      <point x="436" y="19"/>
      <point x="520" y="43"/>
      <point x="558" y="65" type="qcurve" name="sv03"/>
      <point x="574" y="42" type="line" name="sh03"/>
      <point x="534" y="19"/>
      <point x="443" y="-8"/>
      <point x="392" y="-8" type="qcurve" name="ab01"/>
      <point x="318" y="-8"/>
      <point x="188" y="48"/>
      <point x="139.5" y="96.5" type="qcurve" smooth="yes" name="inserted"/>
      <point x="91" y="145" name="fh06"/>
      <point x="35" y="275"/>
      <point x="35" y="349" type="qcurve" name="dh01"/>
      <point x="35" y="423"/>
      <point x="91" y="554" name="fh07"/>
      <point x="139.5" y="602.5" type="qcurve" smooth="yes" name="inserted"/>
      <point x="188" y="651"/>
      <point x="318" y="708"/>
      <point x="392" y="708" type="qcurve" name="at01"/>
      <point x="443" y="708"/>
      <point x="534" y="682"/>
      <point x="575" y="658" type="qcurve"/>
      <point x="575" y="546" type="line" name="dh02"/>
    </contour>
  </outline>
</glyph>
<glyph name="D" format="1">
  <advance width="632"/>
  <unicode hex="0044"/>
  <outline>
    <contour>
      <point x="35" y="27" type="line" name="sh01"/>
      <point x="103" y="27" type="line" name="dh01"/>
      <point x="103" y="673" type="line"/>
      <point x="35" y="673" type="line" name="sh02"/>
      <point x="35" y="700" type="line" name="at01"/>
      <point x="245" y="700" type="line"/>
      <point x="317" y="700"/>
      <point x="445" y="651" name="fh01"/>
      <point x="493.0" y="605.5" type="qcurve" smooth="yes" name="inserted"/>
      <point x="541" y="560" name="fh02"/>
      <point x="597" y="430"/>
      <point x="597" y="350" type="qcurve" name="dh02"/>
      <point x="597" y="291"/>
      <point x="556" y="167" name="fh03"/>
      <point x="510.0" y="116.0" type="qcurve" smooth="yes" name="inserted"/>
      <point x="464" y="65" name="fh04"/>
      <point x="317" y="0"/>
      <point x="211" y="0" type="qcurve"/>
      <point x="35" y="0" type="line" name="ab01"/>
    </contour>
    <contour>
      <point x="131" y="673" type="line" name="sv01"/>
      <point x="131" y="27" type="line" name="sh03"/>
      <point x="223" y="27" type="line"/>
      <point x="314" y="27"/>
      <point x="445" y="85" name="fh05"/>
      <point x="487.5" y="131.0" type="qcurve" smooth="yes" name="inserted"/>
      <point x="530" y="177" name="fh06"/>
      <point x="570" y="292"/>
      <point x="570" y="350" type="qcurve" name="sh04"/>
      <point x="570" y="424"/>
      <point x="519" y="544" name="fh07"/>
      <point x="475.0" y="586.0" type="qcurve" smooth="yes" name="inserted"/>
      <point x="431" y="628"/>
      <point x="314" y="673"/>
      <point x="248" y="673" type="qcurve"/>
    </contour>
  </outline>
</glyph>
<glyph name="E" format="1">
  <advance width="571"/>
  <unicode hex="0045"/>
  <outline>
    <contour>
      <point x="35" y="27" type="line" name="sh01"/>
      <point x="112" y="27" type="line" name="dh01"/>
      <point x="112" y="673" type="line"/>
      <point x="35" y="673" type="line" name="sh02"/>
      <point x="35" y="700" type="line" name="at01"/>
      <point x="522" y="700" type="line"/>
      <point x="522" y="546" type="line" name="sh03"/>
      <point x="495" y="546" type="line" name="sh04"/>
      <point x="495" y="673" type="line"/>
      <point x="140" y="673" type="line" name="sv01"/>
      <point x="140" y="366" type="line" name="sh06"/>
      <point x="483" y="366" type="line"/>
      <point x="483" y="339" type="line" name="ih01"/>
      <point x="140" y="339" type="line" name="sv02"/>
      <point x="140" y="27" type="line" name="sh05"/>
      <point x="509" y="27" type="line" name="sh07"/>
      <point x="509" y="154" type="line" name="sv03"/>
      <point x="536" y="154" type="line"/>
      <point x="536" y="0" type="line" name="dh02"/>
      <point x="35" y="0" type="line" name="ab01"/>
    </contour>
  </outline>
</glyph>
<glyph name="I" format="1">
  <advance width="258"/>
  <unicode hex="0049"/>
  <outline>
    <contour>
      <point x="35" y="27" type="line" name="sh01"/>
      <point x="112" y="27" type="line" name="dh01"/>
      <point x="112" y="673" type="line"/>
      <point x="35" y="673" type="line" name="sh02"/>
      <point x="35" y="700" type="line" name="at01"/>
      <point x="223" y="700" type="line"/>
      <point x="223" y="673" type="line" name="sh04"/>
      <point x="140" y="673" type="line" name="sv01"/>
      <point x="140" y="27" type="line" name="dh02"/>
      <point x="223" y="27" type="line" name="sh03"/>
      <point x="223" y="0" type="line"/>
      <point x="35" y="0" type="line" name="ab01"/>
    </contour>
  </outline>
</glyph>
<glyph name="K" format="1">
  <advance width="686"/>
  <unicode hex="004B"/>
  <outline>
    <contour>
      <point x="467" y="27" type="line" name="sh02"/>
      <point x="531" y="27" type="line" name="sh01"/>
      <point x="456" y="121"/>
      <point x="309" y="309"/>
      <point x="235" y="404" type="qcurve" name="ih01"/>
      <point x="139" y="314" type="line" name="sv01"/>
      <point x="139" y="242"/>
      <point x="140" y="99"/>
      <point x="140" y="27" type="qcurve" name="sh03"/>
      <point x="223" y="27" type="line" name="sh04"/>
      <point x="223" y="0" type="line"/>
      <point x="35" y="0" type="line" name="ab01"/>
      <point x="35" y="27" type="line" name="sh05"/>
      <point x="112" y="27" type="line" name="dh01"/>
      <point x="112" y="673" type="line"/>
      <point x="35" y="673" type="line" name="sh06"/>
      <point x="35" y="700" type="line" name="at01"/>
      <point x="219" y="700" type="line"/>
      <point x="219" y="673" type="line" name="sh08"/>
      <point x="140" y="673" type="line" name="sv02"/>
      <point x="140" y="373" type="line" name="sh07"/>
      <point x="140" y="365"/>
      <point x="139" y="352"/>
      <point x="138" y="344" type="qcurve" name="iv01"/>
      <point x="156" y="364" type="line"/>
      <point x="479" y="673" type="line" name="sh10"/>
      <point x="421" y="673" type="line" name="sh11"/>
      <point x="421" y="700" type="line" name="at02"/>
      <point x="604" y="700" type="line"/>
      <point x="604" y="673" type="line" name="sh12"/>
      <point x="517" y="673" type="line" name="sh09"/>
      <point x="254" y="422" type="line" name="ih02"/>
      <point x="333" y="322"/>
      <point x="488" y="126"/>
      <point x="566" y="27" type="qcurve" name="dh02"/>
      <point x="651" y="27" type="line" name="sh13"/>
      <point x="651" y="0" type="line"/>
      <point x="467" y="0" type="line" name="ab02"/>
    </contour>
  </outline>
</glyph>
<glyph name="M" format="1">
  <advance width="964"/>
  <unicode hex="004D"/>
  <outline>
    <contour>
      <point x="823" y="700" type="qcurve" name="ih01"/>
      <point x="925" y="700" type="line" name="at01"/>
      <point x="925" y="673" type="line" name="sh04"/>
      <point x="846" y="673" type="line"/>
      <point x="846" y="27" type="line" name="sh01"/>
      <point x="929" y="27" type="line" name="sh03"/>
      <point x="929" y="0" type="line"/>
      <point x="741" y="0" type="line" name="ab02"/>
      <point x="741" y="27" type="line" name="sh05"/>
      <point x="818" y="27" type="line" name="sh02"/>
      <point x="818" y="610" type="line"/>
      <point x="818" y="611"/>
      <point x="818" y="623"/>
      <point x="818.5" y="630.5" type="qcurve" smooth="yes" name="inserted"/>
      <point x="819" y="638"/>
      <point x="820" y="651" name="sv02"/>
      <point x="820" y="652" type="qcurve"/>
      <point x="818" y="650"/>
      <point x="811" y="641"/>
      <point x="806" y="634" type="qcurve"/>
      <point x="793" y="616"/>
      <point x="748" y="558" name="fh01"/>
      <point x="720.5" y="521.5" type="qcurve" smooth="yes" name="inserted"/>
      <point x="693" y="485" name="fh02"/>
      <point x="629" y="402" name="fh03"/>
      <point x="597.5" y="360.5" type="qcurve" smooth="yes" name="inserted"/>
      <point x="566" y="319"/>
      <point x="505" y="240"/>
      <point x="480" y="207" type="qcurve" name="ah01"/>
      <point x="422" y="283"/>
      <point x="329" y="404"/>
      <point x="290.0" y="455.0" type="qcurve" smooth="yes" name="inserted"/>
      <point x="251" y="506"/>
      <point x="184" y="594"/>
      <point x="151" y="637" type="qcurve"/>
      <point x="140" y="652" type="line" name="sv01"/>
      <point x="141" y="641"/>
      <point x="142" y="621"/>
      <point x="142" y="610" type="qcurve"/>
      <point x="142" y="27" type="line" name="sh07"/>
      <point x="223" y="27" type="line" name="sh08"/>
      <point x="223" y="0" type="line"/>
      <point x="35" y="0" type="line" name="ab01"/>
      <point x="35" y="27" type="line" name="sh09"/>
      <point x="114" y="27" type="line" name="sh06"/>
      <point x="114" y="673" type="line"/>
      <point x="35" y="673" type="line" name="sh10"/>
      <point x="35" y="700" type="line" name="at02"/>
      <point x="137" y="700" type="line" name="ih02"/>
      <point x="143" y="693"/>
      <point x="182" y="641"/>
      <point x="210.5" y="604.0" type="qcurve" smooth="yes" name="inserted"/>
      <point x="239" y="567"/>
      <point x="309" y="476" name="fh04"/>
      <point x="345.5" y="428.5" type="qcurve" smooth="yes" name="inserted"/>
      <point x="382" y="381" name="fv01"/>
      <point x="451" y="291"/>
      <point x="480" y="254" type="qcurve" name="sh11"/>
      <point x="566" y="365"/>
      <point x="737" y="589"/>
    </contour>
  </outline>
</glyph>
<glyph name="Q" format="1">
  <advance width="808"/>
  <unicode hex="0051"/>
  <outline>
    <contour>
      <point x="63" y="348" type="qcurve" name="sh01"/>
      <point x="63" y="280"/>
      <point x="115" y="160" name="fh01"/>
      <point x="159.0" y="115.5" type="qcurve" smooth="yes" name="inserted"/>
      <point x="203" y="71" name="fh02"/>
      <point x="322" y="19"/>
      <point x="390" y="19" type="qcurve" name="sv01"/>
      <point x="458" y="19" name="fh03"/>
      <point x="579" y="71" name="fh04"/>
      <point x="624.5" y="116.0" type="qcurve" smooth="yes" name="inserted"/>
      <point x="670" y="161" name="fh05"/>
      <point x="723" y="281" name="fh06"/>
      <point x="723" y="349" type="qcurve" name="sh02"/>
      <point x="723" y="417" name="fh07"/>
      <point x="670" y="538" name="fh08"/>
      <point x="625.0" y="583.0" type="qcurve" smooth="yes" name="inserted"/>
      <point x="580" y="628" name="fh09"/>
      <point x="460" y="681"/>
      <point x="392" y="681" type="qcurve" name="sv02"/>
      <point x="324" y="681"/>
      <point x="204" y="628" name="fh10"/>
      <point x="159.5" y="583.0" type="qcurve" smooth="yes" name="inserted"/>
      <point x="115" y="538" name="fh11"/>
      <point x="63" y="417"/>
    </contour>
    <contour>
      <point x="35" y="349" type="qcurve" name="dh01"/>
      <point x="35" y="423"/>
      <point x="91" y="554" name="fh12"/>
      <point x="139.5" y="602.5" type="qcurve" smooth="yes" name="inserted"/>
      <point x="188" y="651" name="fh13"/>
      <point x="318" y="708"/>
      <point x="392" y="708" type="qcurve" name="at01"/>
      <point x="466" y="708"/>
      <point x="597" y="651" name="fh14"/>
      <point x="645.5" y="602.5" type="qcurve" smooth="yes" name="inserted"/>
      <point x="694" y="554" name="fh15"/>
      <point x="751" y="423"/>
      <point x="751" y="349" type="qcurve" name="dh02"/>
      <point x="751" y="295"/>
      <point x="720" y="195" name="fh16"/>
      <point x="691.5" y="153.5" type="qcurve" smooth="yes" name="inserted"/>
      <point x="663" y="112" name="fh17"/>
      <point x="585" y="47" name="fh18"/>
      <point x="538" y="27" type="qcurve" name="ih01"/>
      <point x="773" y="27" type="line" name="sh03"/>
      <point x="773" y="0" type="line" name="ab02"/>
      <point x="466" y="0" type="line"/>
      <point x="447.0" y="-4.0" name="inserted"/>
      <point x="410.0" y="-8.0"/>
      <point x="392" y="-8" type="qcurve" name="ab01"/>
      <point x="318" y="-8"/>
      <point x="188" y="48" name="fh19"/>
      <point x="139.5" y="96.5" type="qcurve" smooth="yes" name="inserted"/>
      <point x="91" y="145" name="fh20"/>
      <point x="35" y="275"/>
    </contour>
  </outline>
</glyph>
<glyph name="R" format="1">
  <advance width="570"/>
  <unicode hex="0052"/>
  <outline>
    <contour>
      <point x="35" y="27" type="line" name="sh01"/>
      <point x="101" y="27" type="line" name="dh01"/>
      <point x="101" y="673" type="line"/>
      <point x="35" y="673" type="line" name="sh02"/>
      <point x="35" y="700" type="line" name="at01"/>
      <point x="246" y="700" type="line"/>
      <point x="276" y="700"/>
      <point x="348" y="680" name="fh01"/>
      <point x="379.5" y="658.5" type="qcurve" smooth="yes" name="inserted"/>
      <point x="411" y="637" name="fh02"/>
      <point x="453" y="568" name="fh03"/>
      <point x="453" y="520" type="qcurve" name="dh02"/>
      <point x="453" y="449" name="fh04"/>
      <point x="376" y="355" name="fh05"/>
      <point x="302" y="340" type="qcurve" name="ih01"/>
      <point x="449" y="27" type="line" name="sh03"/>
      <point x="535" y="27" type="line" name="sh04"/>
      <point x="535" y="0" type="line" name="ab02"/>
      <point x="433" y="0" type="line" name="sh06"/>
      <point x="273" y="338" type="line" name="sh05"/>
      <point x="261.5" y="336.5" name="inserted"/>
      <point x="238.5" y="335.0"/>
      <point x="227" y="335" type="qcurve"/>
      <point x="129" y="335" type="line" name="iv01"/>
      <point x="129" y="27" type="line" name="sh07"/>
      <point x="223" y="27" type="line" name="sh08"/>
      <point x="223" y="0" type="line"/>
      <point x="35" y="0" type="line" name="ab01"/>
    </contour>
    <contour>
      <point x="129" y="362" type="line" name="sh09"/>
      <point x="238" y="362" type="line"/>
      <point x="293" y="362"/>
      <point x="365" y="392" name="fh06"/>
      <point x="386.5" y="415.5" type="qcurve" smooth="yes" name="inserted"/>
      <point x="408" y="439" name="fv01"/>
      <point x="425" y="494"/>
      <point x="425" y="520" type="qcurve" name="sh10"/>
      <point x="425" y="550"/>
      <point x="397" y="606" name="fh07"/>
      <point x="372.0" y="627.0" type="qcurve" smooth="yes" name="inserted"/>
      <point x="347" y="648" name="fh08"/>
      <point x="279" y="673"/>
      <point x="239" y="673" type="qcurve"/>
      <point x="129" y="673" type="line" name="sv01"/>
    </contour>
  </outline>
</glyph>
<glyph name="V" format="1">
  <advance width="837"/>
  <unicode hex="0056"/>
  <outline>
    <contour>
      <point x="35" y="700" type="line"/>
      <point x="223" y="700" type="line" name="at01"/>
      <point x="223" y="673" type="line" name="sh03"/>
      <point x="147" y="673" type="line" name="sh02"/>
      <point x="213" y="518"/>
      <point x="343" y="212" name="fh01"/>
      <point x="408" y="57" type="qcurve" name="fh02"/>
      <point x="417" y="30" type="line" name="sh04"/>
      <point x="426" y="57" type="line"/>
      <point x="492" y="212"/>
      <point x="622" y="518"/>
      <point x="687" y="673" type="qcurve" name="sh06"/>
      <point x="615" y="673" type="line" name="sh07"/>
      <point x="615" y="700" type="line" name="at02"/>
      <point x="802" y="700" type="line"/>
      <point x="802" y="673" type="line" name="sh08"/>
      <point x="716" y="673" type="line" name="sh05"/>
      <point x="641" y="495"/>
      <point x="492" y="145" name="fh03"/>
      <point x="417" y="-32" type="qcurve" name="ah01"/>
      <point x="342" y="145"/>
      <point x="193" y="495"/>
      <point x="118" y="673" type="qcurve" name="sh01"/>
      <point x="35" y="673" type="line" name="sh09"/>
    </contour>
  </outline>
</glyph>
<glyph name="X" format="1">
  <advance width="707"/>
  <unicode hex="0058"/>
  <outline>
    <contour>
      <point x="35" y="700" type="line" name="at01"/>
      <point x="223" y="700" type="line"/>
      <point x="223" y="673" type="line" name="sh03"/>
      <point x="164" y="673" type="line" name="sh02"/>
      <point x="210" y="603"/>
      <point x="301" y="464"/>
      <point x="346" y="395" type="qcurve"/>
      <point x="355" y="379" type="line" name="ih01"/>
      <point x="364" y="395" type="line"/>
      <point x="542" y="673" type="line" name="sh05"/>
      <point x="484" y="673" type="line" name="sh06"/>
      <point x="484" y="700" type="line" name="at02"/>
      <point x="672" y="700" type="line"/>
      <point x="672" y="673" type="line" name="sh08"/>
      <point x="575" y="673" type="line" name="sh07"/>
      <point x="524" y="592"/>
      <point x="423" y="435"/>
      <point x="372" y="355" type="qcurve" name="ih02"/>
      <point x="426" y="272"/>
      <point x="532" y="109"/>
      <point x="586" y="27" type="qcurve" name="dh02"/>
      <point x="672" y="27" type="line" name="sh09"/>
      <point x="672" y="0" type="line"/>
      <point x="484" y="0" type="line" name="ab02"/>
      <point x="484" y="27" type="line" name="sh10"/>
      <point x="551" y="27" type="line" name="sh04"/>
      <point x="389" y="275" type="line"/>
      <point x="379" y="289"/>
      <point x="362" y="322"/>
      <point x="351" y="336" type="qcurve" name="ih03"/>
      <point x="342" y="320" type="line"/>
      <point x="295" y="245"/>
      <point x="201" y="100" name="mh01"/>
      <point x="154" y="27" type="qcurve" name="sh01"/>
      <point x="223" y="27" type="line" name="sh11"/>
      <point x="223" y="0" type="line" name="ab01"/>
      <point x="35" y="0" type="line"/>
      <point x="35" y="27" type="line" name="sh12"/>
      <point x="121" y="27" type="line" name="dh01"/>
      <point x="334" y="359" type="line" name="ih04"/>
      <point x="131" y="673" type="line" name="sh13"/>
      <point x="35" y="673" type="line" name="sh14"/>
    </contour>
  </outline>
</glyph>
<glyph name="backslash" format="1">
  <advance width="333"/>
  <unicode hex="005C"/>
  <outline>
    <contour>
      <point x="44" y="736" type="line" name="sh01"/>
      <point x="114" y="546"/>
      <point x="252" y="171" name="fh01"/>
      <point x="322" y="-19" type="qcurve" name="sh02"/>
      <point x="292" y="-19" type="line" name="sh03"/>
      <point x="222" y="171"/>
      <point x="84" y="546"/>
      <point x="14" y="736" type="qcurve" name="ah01"/>
    </contour>
  </outline>
</glyph>
<glyph name="asciicircum" format="1">
  <advance width="470"/>
  <unicode hex="005E"/>
  <outline>
    <contour>
      <point x="232" y="660" type="qcurve" name="sv01"/>
      <point x="262" y="615"/>
      <point x="322" y="524"/>
      <point x="352" y="479" type="qcurve" name="sh01"/>
      <point x="327" y="479" type="line" name="sh02"/>
      <point x="303" y="514"/>
      <point x="256" y="582"/>
      <point x="232" y="617" type="qcurve" name="sv02"/>
      <point x="208" y="582" name="fv01"/>
      <point x="161" y="514"/>
      <point x="137" y="479" type="qcurve" name="sh03"/>
      <point x="112" y="479" type="line" name="ah01"/>
      <point x="142" y="524"/>
      <point x="202" y="615"/>
    </contour>
  </outline>
</glyph>
<glyph name="grave" format="1">
  <advance width="200"/>
  <unicode hex="0060"/>
  <outline>
    <contour>
      <point x="8" y="612" type="line"/>
      <point x="31" y="579"/>
      <point x="75" y="512"/>
      <point x="98" y="479" type="qcurve" name="sh01"/>
      <point x="74" y="479" type="line" name="av01"/>
      <point x="50" y="512"/>
      <point x="2" y="579"/>
      <point x="-21" y="612" type="qcurve" name="ah01"/>
    </contour>
  </outline>
</glyph>
<glyph name="a" format="1">
  <advance width="535"/>
  <unicode hex="0061"/>
  <outline>
    <contour>
      <point x="35" y="188" type="qcurve" name="dh01"/>
      <point x="35" y="228"/>
      <point x="65" y="299" name="fh01"/>
      <point x="91.5" y="325.5" type="qcurve" smooth="yes" name="inserted"/>
      <point x="118" y="352" name="fh02"/>
      <point x="189" y="383" name="fh03"/>
      <point x="230" y="383" type="qcurve" name="at01"/>
      <point x="260" y="383"/>
      <point x="314" y="366"/>
      <point x="336.5" y="351.0" type="qcurve" smooth="yes" name="inserted"/>
      <point x="359" y="336"/>
      <point x="392" y="296"/>
      <point x="401" y="274" type="qcurve" name="iv01"/>
      <point x="401" y="299"/>
      <point x="403" y="349"/>
      <point x="405" y="375" type="qcurve" name="sh02"/>
      <point x="426" y="375" type="line" name="at02"/>
      <point x="426" y="27" type="line" name="dh02"/>
      <point x="500" y="27" type="line" name="sh03"/>
      <point x="500" y="0" type="line" name="ab02"/>
      <point x="401" y="0" type="line" name="sh01"/>
      <point x="401" y="47" type="line"/>
      <point x="401" y="102" type="line" name="iv02"/>
      <point x="392" y="80"/>
      <point x="360" y="40"/>
      <point x="337.5" y="25.0" type="qcurve" smooth="yes" name="inserted"/>
      <point x="315" y="10"/>
      <point x="261" y="-7"/>
      <point x="230" y="-7" type="qcurve" name="ab01"/>
      <point x="189" y="-7"/>
      <point x="118" y="24" name="fh04"/>
      <point x="91.5" y="50.0" type="qcurve" smooth="yes" name="inserted"/>
      <point x="65" y="76" name="fh05"/>
      <point x="35" y="147"/>
    </contour>
    <contour>
      <point x="63" y="188" type="qcurve" name="sh04"/>
      <point x="63" y="153"/>
      <point x="89" y="92" name="fh06"/>
      <point x="111.5" y="69.5" type="qcurve" smooth="yes" name="inserted"/>
      <point x="134" y="47" name="fh07"/>
      <point x="195" y="21"/>
      <point x="230" y="21" type="qcurve" name="sv01"/>
      <point x="265" y="21"/>
      <point x="327" y="47" name="fv01"/>
      <point x="350.0" y="69.5" type="qcurve" smooth="yes" name="inserted"/>
      <point x="373" y="92" name="fh08"/>
      <point x="399" y="153"/>
      <point x="399" y="188" type="qcurve" name="sh05"/>
      <point x="399" y="223"/>
      <point x="373" y="284" name="fh09"/>
      <point x="350.0" y="307.0" type="qcurve" smooth="yes" name="inserted"/>
      <point x="327" y="330"/>
      <point x="265" y="356"/>
      <point x="230" y="356" type="qcurve" name="sv02"/>
      <point x="195" y="356"/>
      <point x="134" y="330" name="fh10"/>
      <point x="111.5" y="307.0" type="qcurve" smooth="yes" name="inserted"/>
      <point x="89" y="284" name="fh11"/>
      <point x="63" y="223"/>
    </contour>
  </outline>
</glyph>
<glyph name="c" format="1">
  <advance width="389"/>
  <unicode hex="0063"/>
  <outline>
    <contour>
      <point x="354" y="36" type="line" name="sh01"/>
      <point x="328" y="16"/>
      <point x="265" y="-7"/>
      <point x="230" y="-7" type="qcurve" name="ab01"/>
      <point x="189" y="-7"/>
      <point x="118" y="24" name="fh01"/>
      <point x="92.0" y="50.0" type="qcurve" smooth="yes" name="inserted"/>
      <point x="66" y="76" name="fh02"/>
      <point x="35" y="147"/>
      <point x="35" y="188" type="qcurve" name="dh01"/>
      <point x="35" y="228"/>
      <point x="66" y="300" name="fh03"/>
      <point x="92.0" y="326.0" type="qcurve" smooth="yes" name="inserted"/>
      <point x="118" y="352" name="fh04"/>
      <point x="189" y="383"/>
      <point x="230" y="383" type="qcurve" name="at01"/>
      <point x="266" y="383"/>
      <point x="329" y="360"/>
      <point x="354" y="340" type="qcurve"/>
      <point x="354" y="247" type="line" name="dh02"/>
      <point x="328" y="247" type="line" name="sh02"/>
      <point x="328" y="324" type="line"/>
      <point x="307" y="339" name="fh05"/>
      <point x="258" y="356"/>
      <point x="230" y="356" type="qcurve" name="sv01"/>
      <point x="195" y="356"/>
      <point x="134" y="330"/>
      <point x="111.5" y="307.0" type="qcurve" smooth="yes" name="inserted"/>
      <point x="89" y="284" name="fh06"/>
      <point x="63" y="223"/>
      <point x="63" y="188" type="qcurve" name="sh03"/>
      <point x="63" y="153"/>
      <point x="89" y="92" name="fh07"/>
      <point x="111.5" y="69.5" type="qcurve" smooth="yes" name="inserted"/>
      <point x="134" y="47" name="fh08"/>
      <point x="195" y="21"/>
      <point x="230" y="21" type="qcurve" name="sv02"/>
      <point x="261" y="21"/>
      <point x="314" y="40"/>
      <point x="336" y="57" type="qcurve" name="sv03"/>
    </contour>
  </outline>
</glyph>
<glyph name="e" format="1">
  <advance width="438"/>
  <unicode hex="0065"/>
  <outline>
    <contour>
      <point x="230" y="356" type="qcurve" name="sv01"/>
      <point x="189" y="356"/>
      <point x="121" y="320" name="fh01"/>
      <point x="98.5" y="291.0" type="qcurve" smooth="yes" name="inserted"/>
      <point x="76" y="262" name="fv01"/>
      <point x="58" y="186"/>
      <point x="68" y="147" type="qcurve" name="sh01"/>
      <point x="143" y="177" name="fh02"/>
      <point x="290" y="236" name="fh03"/>
      <point x="365" y="266" type="qcurve" name="sh02"/>
      <point x="346" y="306"/>
      <point x="275" y="356"/>
    </contour>
    <contour>
      <point x="401" y="251" type="qcurve" name="dh02"/>
      <point x="320" y="218"/>
      <point x="158" y="154" name="fh04"/>
      <point x="77" y="121" type="qcurve" name="ih01"/>
      <point x="96" y="76" name="fv02"/>
      <point x="177" y="21" name="fh05"/>
      <point x="230" y="21" type="qcurve" name="sv02"/>
      <point x="264" y="21"/>
      <point x="322" y="45"/>
      <point x="345" y="66" type="qcurve" name="sv03"/>
      <point x="349" y="61"/>
      <point x="357" y="51"/>
      <point x="362" y="46" type="qcurve" name="ih02"/>
      <point x="336" y="21"/>
      <point x="269" y="-7"/>
      <point x="230" y="-7" type="qcurve" name="ab01"/>
      <point x="189" y="-7"/>
      <point x="118" y="24" name="fh06"/>
      <point x="92.0" y="50.0" type="qcurve" smooth="yes" name="inserted"/>
      <point x="66" y="76" name="fh07"/>
      <point x="35" y="147" name="fh08"/>
      <point x="35" y="188" type="qcurve" name="dh01"/>
      <point x="35" y="228"/>
      <point x="66" y="300" name="fv03"/>
      <point x="92.0" y="326.0" type="qcurve" smooth="yes" name="inserted"/>
      <point x="118" y="352" name="fh09"/>
      <point x="189" y="383"/>
      <point x="230" y="383" type="qcurve" name="at01"/>
      <point x="290" y="383" name="fh10"/>
      <point x="381" y="309" name="fh11"/>
    </contour>
  </outline>
</glyph>
<glyph name="f" format="1">
  <advance width="292"/>
  <unicode hex="0066"/>
  <outline>
    <contour>
      <point x="35" y="27" type="line" name="sh03"/>
      <point x="96" y="27" type="line"/>
      <point x="96" y="348" type="line" name="sh01"/>
      <point x="35" y="348" type="line" name="sh02"/>
      <point x="35" y="375" type="line" name="at01"/>
      <point x="96" y="375" type="line" name="dh01"/>
      <point x="96" y="518" type="line"/>
      <point x="96" y="573"/>
      <point x="127" y="659" name="fh01"/>
      <point x="153.5" y="688.0" type="qcurve" smooth="yes" name="inserted"/>
      <point x="180" y="717" name="fh02"/>
      <point x="251" y="748" name="fh03"/>
      <point x="292" y="750" type="qcurve" name="at02"/>
      <point x="292" y="723" type="line" name="dh02"/>
      <point x="258" y="723"/>
      <point x="197" y="694" name="fh04"/>
      <point x="174.0" y="668.0" type="qcurve" smooth="yes" name="inserted"/>
      <point x="151" y="642" name="fh05"/>
      <point x="124" y="567"/>
      <point x="124" y="520" type="qcurve"/>
      <point x="124" y="375" type="line" name="sh04"/>
      <point x="251" y="375" type="line"/>
      <point x="251" y="348" type="line" name="sh06"/>
      <point x="124" y="348" type="line" name="sh05"/>
      <point x="124" y="27" type="line" name="sv01"/>
      <point x="219" y="27" type="line" name="sh07"/>
      <point x="219" y="0" type="line"/>
      <point x="35" y="0" type="line" name="ab01"/>
    </contour>
  </outline>
</glyph>
<glyph name="g" format="1">
  <advance width="536"/>
  <unicode hex="0067"/>
  <outline>
    <contour>
      <point x="405" y="375" type="qcurve"/>
      <point x="501" y="375" type="line" name="at02"/>
      <point x="501" y="348" type="line" name="sh01"/>
      <point x="426" y="348" type="line"/>
      <point x="426" y="-26" type="line" name="dh02"/>
      <point x="426" y="-79"/>
      <point x="397" y="-161" name="fh01"/>
      <point x="371.5" y="-189.5" type="qcurve" smooth="yes" name="inserted"/>
      <point x="346" y="-218" name="fh02"/>
      <point x="278" y="-249"/>
      <point x="239" y="-250" type="qcurve" name="ab02"/>
      <point x="197" y="-248"/>
      <point x="112" y="-221"/>
      <point x="86" y="-190" type="qcurve" name="ih01"/>
      <point x="107" y="-171" type="line" name="sv01"/>
      <point x="130" y="-198"/>
      <point x="203" y="-222"/>
      <point x="238" y="-222" type="qcurve" name="sv02"/>
      <point x="271" y="-222"/>
      <point x="330" y="-194" name="fh03"/>
      <point x="351.5" y="-168.5" type="qcurve" smooth="yes" name="inserted"/>
      <point x="373" y="-143" name="fh04"/>
      <point x="399" y="-71"/>
      <point x="399" y="-27" type="qcurve" name="sh02"/>
      <point x="399" y="47" type="line"/>
      <point x="399" y="61"/>
      <point x="400" y="87"/>
      <point x="401" y="101" type="qcurve" name="iv01"/>
      <point x="383" y="56"/>
      <point x="291" y="-6"/>
      <point x="230" y="-6" type="qcurve" name="ab01"/>
      <point x="189" y="-6"/>
      <point x="118" y="24" name="fh05"/>
      <point x="91.5" y="50.5" type="qcurve" smooth="yes" name="inserted"/>
      <point x="65" y="77" name="fh06"/>
      <point x="35" y="147"/>
      <point x="35" y="188" type="qcurve" name="dh01"/>
      <point x="35" y="228"/>
      <point x="65" y="299" name="fh07"/>
      <point x="91.5" y="325.5" type="qcurve" smooth="yes" name="inserted"/>
      <point x="118" y="352" name="fh08"/>
      <point x="189" y="383"/>
      <point x="230" y="383" type="qcurve" name="at01"/>
      <point x="260" y="383"/>
      <point x="314" y="366"/>
      <point x="336.5" y="351.0" type="qcurve" smooth="yes" name="inserted"/>
      <point x="359" y="336" name="fh09"/>
      <point x="392" y="296"/>
      <point x="401" y="274" type="qcurve" name="sh04"/>
      <point x="401" y="299"/>
      <point x="403" y="349"/>
    </contour>
    <contour>
      <point x="63" y="188" type="qcurve" name="sh05"/>
      <point x="63" y="153"/>
      <point x="89" y="92" name="fh10"/>
      <point x="111.5" y="69.5" type="qcurve" smooth="yes" name="inserted"/>
      <point x="134" y="47" name="fh11"/>
      <point x="195" y="21"/>
      <point x="230" y="21" type="qcurve" name="sv03"/>
      <point x="265" y="21"/>
      <point x="327" y="47" name="fv01"/>
      <point x="350.0" y="69.5" type="qcurve" smooth="yes" name="inserted"/>
      <point x="373" y="92" name="fh12"/>
      <point x="399" y="153"/>
      <point x="399" y="188" type="qcurve" name="sh03"/>
      <point x="399" y="223"/>
      <point x="373" y="284" name="fh13"/>
      <point x="350.0" y="307.0" type="qcurve" smooth="yes" name="inserted"/>
      <point x="327" y="330"/>
      <point x="265" y="356"/>
      <point x="230" y="356" type="qcurve" name="sv04"/>
      <point x="195" y="356"/>
      <point x="134" y="330" name="fv02"/>
      <point x="111.5" y="307.0" type="qcurve" smooth="yes" name="inserted"/>
      <point x="89" y="284" name="fh14"/>
      <point x="63" y="223"/>
    </contour>
  </outline>
</glyph>
<glyph name="k" format="1">
  <advance width="495"/>
  <unicode hex="006B"/>
  <outline>
    <contour>
      <point x="281" y="27" type="line" name="sh02"/>
      <point x="341" y="27" type="line" name="sh01"/>
      <point x="307" y="73"/>
      <point x="238" y="165"/>
      <point x="205" y="212" type="qcurve" name="ih01"/>
      <point x="136" y="147" type="line" name="iv01"/>
      <point x="136" y="27" type="line" name="sh03"/>
      <point x="219" y="27" type="line" name="sh06"/>
      <point x="219" y="0" type="line"/>
      <point x="35" y="0" type="line" name="ab01"/>
      <point x="35" y="27" type="line" name="sh07"/>
      <point x="108" y="27" type="line" name="dh01"/>
      <point x="108" y="723" type="line"/>
      <point x="36" y="723" type="line" name="sh08"/>
      <point x="36" y="750" type="line" name="at02"/>
      <point x="136" y="750" type="line"/>
      <point x="136" y="183" type="line" name="sh04"/>
      <point x="312" y="348" type="line" name="sh09"/>
      <point x="244" y="348" type="line" name="sh10"/>
      <point x="244" y="375" type="line"/>
      <point x="423" y="375" type="line" name="at01"/>
      <point x="423" y="348" type="line" name="sh11"/>
      <point x="348" y="348" type="line" name="sh05"/>
      <point x="314" y="316"/>
      <point x="261" y="263" name="fh01"/>
      <point x="226" y="231" type="qcurve" name="ih02"/>
      <point x="263" y="180" name="mh01"/>
      <point x="337" y="78"/>
      <point x="375" y="27" type="qcurve" name="dh02"/>
      <point x="460" y="27" type="line" name="sh12"/>
      <point x="460" y="0" type="line"/>
      <point x="281" y="0" type="line" name="ab02"/>
    </contour>
  </outline>
</glyph>
<glyph name="p" format="1">
  <advance width="535"/>
  <unicode hex="0070"/>
  <outline>
    <contour>
      <point x="43" y="-223" type="line" name="sh01"/>
      <point x="109" y="-223" type="line" name="dh01"/>
      <point x="109" y="348" type="line"/>
      <point x="35" y="348" type="line" name="sh02"/>
      <point x="35" y="375" type="line" name="at01"/>
      <point x="131" y="375" type="line" name="sh05"/>
      <point x="131" y="349"/>
      <point x="133" y="297"/>
      <point x="134" y="271" type="qcurve" name="iv01"/>
      <point x="143" y="293"/>
      <point x="176" y="334"/>
      <point x="198.5" y="349.0" type="qcurve" smooth="yes" name="inserted"/>
      <point x="221" y="364"/>
      <point x="275" y="382"/>
      <point x="305" y="382" type="qcurve" name="at02"/>
      <point x="346" y="382"/>
      <point x="417" y="351" name="fh01"/>
      <point x="443.5" y="325.0" type="qcurve" smooth="yes" name="inserted"/>
      <point x="470" y="299" name="fh02"/>
      <point x="500" y="227"/>
      <point x="500" y="187" type="qcurve" name="dh02"/>
      <point x="500" y="146"/>
      <point x="470" y="75" name="fh03"/>
      <point x="443.5" y="49.0" type="qcurve" smooth="yes" name="inserted"/>
      <point x="417" y="23" name="fh04"/>
      <point x="346" y="-8"/>
      <point x="305" y="-8" type="qcurve" name="ab02"/>
      <point x="244" y="-8"/>
      <point x="153" y="55"/>
      <point x="135" y="100" type="qcurve" name="iv02"/>
      <point x="135" y="88"/>
      <point x="137" y="64"/>
      <point x="137" y="53" type="qcurve"/>
      <point x="137" y="-223" type="line" name="sh03"/>
      <point x="226" y="-223" type="line" name="sh06"/>
      <point x="226" y="-250" type="line"/>
      <point x="43" y="-250" type="line" name="ab01"/>
    </contour>
    <contour>
      <point x="472" y="187" type="qcurve" name="sh07"/>
      <point x="472" y="222"/>
      <point x="446" y="283" name="fh05"/>
      <point x="423.5" y="305.5" type="qcurve" smooth="yes" name="inserted"/>
      <point x="401" y="328" name="fh06"/>
      <point x="340" y="354"/>
      <point x="305" y="354" type="qcurve" name="sv01"/>
      <point x="270" y="354"/>
      <point x="208" y="328"/>
      <point x="185.5" y="305.5" type="qcurve" smooth="yes" name="inserted"/>
      <point x="163" y="283" name="fh07"/>
      <point x="137" y="222"/>
      <point x="137" y="187" type="qcurve" name="sh04"/>
      <point x="137" y="152"/>
      <point x="163" y="91" name="fh08"/>
      <point x="185.5" y="68.0" type="qcurve" smooth="yes" name="inserted"/>
      <point x="208" y="45" name="fh09"/>
      <point x="270" y="19"/>
      <point x="305" y="19" type="qcurve" name="sv02"/>
      <point x="340" y="19"/>
      <point x="401" y="45" name="fh10"/>
      <point x="423.5" y="68.0" type="qcurve" smooth="yes" name="inserted"/>
      <point x="446" y="91" name="fh11"/>
      <point x="472" y="152"/>
    </contour>
  </outline>
</glyph>
<glyph name="r" format="1">
  <advance width="335"/>
  <unicode hex="0072"/>
  <outline>
    <contour>
      <point x="35" y="27" type="line" name="sh01"/>
      <point x="113" y="27" type="line" name="dh01"/>
      <point x="113" y="348" type="line"/>
      <point x="40" y="348" type="line" name="sh02"/>
      <point x="40" y="375" type="line" name="at01"/>
      <point x="134" y="375" type="line"/>
      <point x="136" y="331" type="line"/>
      <point x="136" y="316"/>
      <point x="138" y="292"/>
      <point x="138" y="277" type="qcurve" name="sh04"/>
      <point x="160" y="326"/>
      <point x="249" y="381"/>
      <point x="300" y="382" type="qcurve" name="at02"/>
      <point x="299" y="355" type="line" name="dh02"/>
      <point x="267" y="354"/>
      <point x="209" y="332"/>
      <point x="187.5" y="313.0" type="qcurve" smooth="yes" name="inserted"/>
      <point x="166" y="294"/>
      <point x="141" y="242"/>
      <point x="141" y="212" type="qcurve"/>
      <point x="141" y="27" type="line" name="sh03"/>
      <point x="219" y="27" type="line" name="sh05"/>
      <point x="219" y="0" type="line"/>
      <point x="35" y="0" type="line" name="ab01"/>
    </contour>
  </outline>
</glyph>
<glyph name="s" format="1">
  <advance width="318"/>
  <unicode hex="0073"/>
  <outline>
    <contour>
      <point x="79" y="97" type="line" name="sh02"/>
      <point x="79" y="42" type="line"/>
      <point x="100" y="27"/>
      <point x="149" y="19"/>
      <point x="172" y="19" type="qcurve" name="sv01"/>
      <point x="184" y="19"/>
      <point x="214" y="29"/>
      <point x="227.5" y="39.0" type="qcurve" smooth="yes" name="inserted"/>
      <point x="241" y="49" name="fh01"/>
      <point x="259" y="79"/>
      <point x="259" y="100" type="qcurve" name="sh03"/>
      <point x="259" y="128"/>
      <point x="231" y="159"/>
      <point x="210.0" y="168.5" type="qcurve" smooth="yes" name="inserted"/>
      <point x="189" y="178" name="sv02"/>
      <point x="139" y="191" name="fh02"/>
      <point x="117.5" y="201.0" type="qcurve" smooth="yes" name="inserted"/>
      <point x="96" y="211" name="fh03"/>
      <point x="67" y="246" name="fh04"/>
      <point x="67" y="278" type="qcurve" name="dh01"/>
      <point x="67" y="303"/>
      <point x="86" y="341" name="fh05"/>
      <point x="101.0" y="354.0" type="qcurve" smooth="yes" name="inserted"/>
      <point x="116" y="367"/>
      <point x="153" y="380"/>
      <point x="171" y="380" type="qcurve" name="at01"/>
      <point x="174" y="380"/>
      <point x="198" y="379"/>
      <point x="213.5" y="376.0" type="qcurve" smooth="yes" name="inserted"/>
      <point x="229" y="373"/>
      <point x="261" y="360"/>
      <point x="272" y="348" type="qcurve"/>
      <point x="272" y="278" type="line" name="ih01"/>
      <point x="246" y="278" type="line" name="sh04"/>
      <point x="246" y="334" type="line"/>
      <point x="238" y="341"/>
      <point x="215" y="349"/>
      <point x="203.5" y="350.5" type="qcurve" smooth="yes" name="inserted"/>
      <point x="192" y="352"/>
      <point x="174" y="353" name="sv03"/>
      <point x="171" y="353" type="qcurve"/>
      <point x="159" y="353"/>
      <point x="132" y="345"/>
      <point x="120.5" y="337.0" type="qcurve" smooth="yes" name="inserted"/>
      <point x="109" y="329" name="fh06"/>
      <point x="95" y="301"/>
      <point x="95" y="282" type="qcurve" name="sh05"/>
      <point x="95" y="256"/>
      <point x="123" y="228"/>
      <point x="144.5" y="219.0" type="qcurve" smooth="yes" name="inserted"/>
      <point x="166" y="210" name="iv01"/>
      <point x="216" y="196" name="fh07"/>
      <point x="237.5" y="184.5" type="qcurve" smooth="yes" name="inserted"/>
      <point x="259" y="173" name="fh08"/>
      <point x="287" y="136" name="fh09"/>
      <point x="287" y="103" type="qcurve" name="dh02"/>
      <point x="287" y="85"/>
      <point x="274" y="46" name="fh10"/>
      <point x="259.5" y="29.5" type="qcurve" smooth="yes" name="inserted"/>
      <point x="245" y="13" name="fh11"/>
      <point x="200" y="-8"/>
      <point x="169" y="-8" type="qcurve" name="ab01"/>
      <point x="161" y="-8"/>
      <point x="132" y="-6"/>
      <point x="115.5" y="-2.0" type="qcurve" smooth="yes" name="inserted"/>
      <point x="99" y="2"/>
      <point x="65" y="15"/>
      <point x="53" y="27" type="qcurve"/>
      <point x="53" y="97" type="line" name="sh01"/>
    </contour>
  </outline>
</glyph>
<glyph name="t" format="1">
  <advance width="307"/>
  <unicode hex="0074"/>
  <outline>
    <contour>
      <point x="123" y="619" type="line" name="sv01"/>
      <point x="151" y="619" type="line"/>
      <point x="151" y="375" type="line" name="sh01"/>
      <point x="272" y="375" type="line"/>
      <point x="272" y="348" type="line" name="sh02"/>
      <point x="151" y="348" type="line" name="dh02"/>
      <point x="151" y="27" type="line"/>
      <point x="235" y="27" type="line" name="sh03"/>
      <point x="235" y="0" type="line" name="ab01"/>
      <point x="123" y="0" type="line"/>
      <point x="123" y="348" type="line" name="dh01"/>
      <point x="35" y="348" type="line" name="sh04"/>
      <point x="35" y="375" type="line"/>
      <point x="123" y="375" type="line" name="sh05"/>
    </contour>
  </outline>
</glyph>
<glyph name="v" format="1">
  <advance width="589"/>
  <unicode hex="0076"/>
  <outline>
    <contour>
      <point x="35" y="375" type="line" name="at01"/>
      <point x="208" y="375" type="line"/>
      <point x="208" y="348" type="line" name="sh03"/>
      <point x="139" y="348" type="line" name="sh02"/>
      <point x="179" y="269"/>
      <point x="259" y="110" name="fv01"/>
      <point x="297" y="30" type="qcurve" name="sh04"/>
      <point x="332" y="105"/>
      <point x="413" y="267"/>
      <point x="455" y="348" type="qcurve" name="sh06"/>
      <point x="397" y="348" type="line" name="sh07"/>
      <point x="397" y="375" type="line" name="at02"/>
      <point x="554" y="375" type="line"/>
      <point x="554" y="348" type="line" name="sh08"/>
      <point x="484" y="348" type="line" name="sh05"/>
      <point x="437" y="254"/>
      <point x="344" y="71" name="fh01"/>
      <point x="297" y="-23" type="qcurve" name="ah01"/>
      <point x="249" y="71"/>
      <point x="156" y="254"/>
      <point x="109" y="348" type="qcurve" name="sh01"/>
      <point x="35" y="348" type="line" name="sh09"/>
    </contour>
  </outline>
</glyph>
<glyph name="x" format="1">
  <advance width="496"/>
  <unicode hex="0078"/>
  <outline>
    <contour>
      <point x="35" y="375" type="line" name="at01"/>
      <point x="219" y="375" type="line"/>
      <point x="219" y="348" type="line" name="sh03"/>
      <point x="144" y="348" type="line" name="sh04"/>
      <point x="247" y="206" type="line" name="ih03"/>
      <point x="349" y="348" type="line" name="sh06"/>
      <point x="282" y="348" type="line" name="sh08"/>
      <point x="282" y="375" type="line" name="at02"/>
      <point x="461" y="375" type="line"/>
      <point x="461" y="348" type="line" name="sh10"/>
      <point x="383" y="348" type="line" name="sh11"/>
      <point x="264" y="183" type="line" name="ih01"/>
      <point x="293" y="144"/>
      <point x="350" y="67"/>
      <point x="379" y="27" type="qcurve" name="dh02"/>
      <point x="461" y="27" type="line" name="sh09"/>
      <point x="461" y="0" type="line"/>
      <point x="277" y="0" type="line" name="ab01"/>
      <point x="277" y="27" type="line" name="sh07"/>
      <point x="345" y="27" type="line" name="sh05"/>
      <point x="319" y="63"/>
      <point x="269" y="132"/>
      <point x="243" y="167" type="qcurve" name="ih04"/>
      <point x="217" y="132"/>
      <point x="169" y="62"/>
      <point x="143" y="27" type="qcurve" name="sh01"/>
      <point x="214" y="27" type="line" name="sh02"/>
      <point x="214" y="0" type="line" name="ab02"/>
      <point x="35" y="0" type="line"/>
      <point x="35" y="27" type="line" name="sh12"/>
      <point x="108" y="27" type="line" name="dh01"/>
      <point x="138" y="68"/>
      <point x="196" y="148"/>
      <point x="225" y="190" type="qcurve" name="ih02"/>
      <point x="196" y="230"/>
      <point x="138" y="308"/>
      <point x="109" y="348" type="qcurve" name="sh13"/>
      <point x="35" y="348" type="line" name="sh14"/>
    </contour>
  </outline>
</glyph>
<glyph name="z" format="1">
  <advance width="430"/>
  <unicode hex="007A"/>
  <outline>
    <contour>
      <point x="395" y="80" type="line" name="dh02"/>
      <point x="395" y="0" type="line" name="ab01"/>
      <point x="35" y="0" type="line"/>
      <point x="35" y="27" type="line" name="sh01"/>
      <point x="115" y="108"/>
      <point x="260" y="267"/>
      <point x="339" y="348" type="qcurve" name="sh02"/>
      <point x="47" y="348" type="line" name="sv02"/>
      <point x="47" y="410" type="line" name="dh01"/>
      <point x="73" y="410" type="line" name="sh03"/>
      <point x="73" y="375" type="line" name="at01"/>
      <point x="377" y="375" type="line" name="ih01"/>
      <point x="377" y="348" type="line" name="sv03"/>
      <point x="297" y="267"/>
      <point x="152" y="108"/>
      <point x="73" y="27" type="qcurve" name="sh04"/>
      <point x="369" y="27" type="line" name="sv01"/>
      <point x="369" y="80" type="line" name="sh05"/>
    </contour>
  </outline>
</glyph>
<glyph name="sterling" format="1">
  <advance width="574"/>
  <unicode hex="00A3"/>
  <outline>
    <contour>
      <point x="498" y="0" type="line" name="ab01"/>
      <point x="27" y="0" type="line"/>
      <point x="27" y="27" type="line" name="sh01"/>
      <point x="71" y="27" type="line" name="sv02"/>
      <point x="88" y="27"/>
      <point x="109" y="40"/>
      <point x="114.5" y="56.0" type="qcurve" smooth="yes" name="inserted"/>
      <point x="120" y="72"/>
      <point x="123" y="126"/>
      <point x="123" y="167" type="qcurve"/>
      <point x="123" y="303" type="line" name="dh01"/>
      <point x="58" y="303" type="line" name="sh02"/>
      <point x="58" y="331" type="line"/>
      <point x="123" y="331" type="line" name="sh03"/>
      <point x="123" y="500" type="line"/>
      <point x="123" y="570" name="fh01"/>
      <point x="216" y="634" name="fh02"/>
      <point x="294" y="634" type="qcurve" name="av01"/>
      <point x="361" y="634"/>
      <point x="432" y="583"/>
      <point x="452" y="543" type="qcurve" name="ih01"/>
      <point x="432" y="531" type="line" name="sh04"/>
      <point x="421" y="551"/>
      <point x="397" y="580"/>
      <point x="381.0" y="589.0" type="qcurve" smooth="yes" name="inserted"/>
      <point x="365" y="598"/>
      <point x="323" y="607"/>
      <point x="294" y="607" type="qcurve" name="sv03"/>
      <point x="253" y="607"/>
      <point x="198" y="590" name="fh03"/>
      <point x="181.5" y="575.5" type="qcurve" smooth="yes" name="inserted"/>
      <point x="165" y="561"/>
      <point x="151" y="522"/>
      <point x="151" y="499" type="qcurve"/>
      <point x="151" y="331" type="line" name="sh06"/>
      <point x="277" y="331" type="line" name="iv01"/>
      <point x="277" y="303" type="line" name="sh07"/>
      <point x="151" y="303" type="line" name="sh05"/>
      <point x="151" y="120" type="line"/>
      <point x="151" y="91"/>
      <point x="142" y="41"/>
      <point x="128" y="27" type="qcurve"/>
      <point x="470" y="27" type="line" name="sv01"/>
      <point x="470" y="134" type="line" name="sh08"/>
      <point x="498" y="134" type="line" name="dh02"/>
    </contour>
  </outline>
</glyph>
<glyph name="yen" format="1">
  <advance width="638"/>
  <unicode hex="00A5"/>
  <outline>
    <contour>
      <point x="511" y="100" type="line" name="sh02"/>
      <point x="360" y="100" type="line" name="sh01"/>
      <point x="360" y="27" type="line" name="sv01"/>
      <point x="439" y="27" type="line" name="sh03"/>
      <point x="439" y="0" type="line"/>
      <point x="252" y="0" type="line" name="ab01"/>
      <point x="252" y="27" type="line" name="sh05"/>
      <point x="328" y="27" type="line"/>
      <point x="328" y="100" type="line" name="sh04"/>
      <point x="177" y="100" type="line" name="sh06"/>
      <point x="177" y="127" type="line" name="iv01"/>
      <point x="328" y="127" type="line"/>
      <point x="328" y="262" type="line" name="dh01"/>
      <point x="328" y="263" type="line"/>
      <point x="177" y="263" type="line" name="sh07"/>
      <point x="177" y="290" type="line" name="iv02"/>
      <point x="312" y="290" type="line" name="ih01"/>
      <point x="83" y="673" type="line" name="sh08"/>
      <point x="13" y="673" type="line" name="sh09"/>
      <point x="13" y="700" type="line"/>
      <point x="201" y="700" type="line" name="at02"/>
      <point x="201" y="673" type="line" name="sh11"/>
      <point x="117" y="673" type="line" name="sh10"/>
      <point x="171" y="583"/>
      <point x="281" y="406" name="fh01"/>
      <point x="332" y="314" type="qcurve"/>
      <point x="344" y="287" type="line" name="ih02"/>
      <point x="345" y="287" type="line" name="mh01"/>
      <point x="356" y="314" type="line" name="fh02"/>
      <point x="570" y="673" type="line" name="sh13"/>
      <point x="488" y="673" type="line" name="sh14"/>
      <point x="488" y="700" type="line"/>
      <point x="675" y="700" type="line" name="at01"/>
      <point x="675" y="673" type="line" name="sh15"/>
      <point x="604" y="673" type="line" name="sh12"/>
      <point x="547" y="576"/>
      <point x="433" y="387"/>
      <point x="376" y="290" type="qcurve" name="ih03"/>
      <point x="510" y="290" type="line" name="sv02"/>
      <point x="510" y="263" type="line" name="sh16"/>
      <point x="360" y="263" type="line" name="dh02"/>
      <point x="360" y="257" type="line"/>
      <point x="360" y="127" type="line" name="sv03"/>
      <point x="511" y="127" type="line"/>
    </contour>
  </outline>
</glyph>
<glyph name="copyright" format="1">
  <advance width="793"/>
  <unicode hex="00A9"/>
  <outline>
    <contour>
      <point x="399" y="135" type="qcurve" name="sv01"/>
      <point x="448" y="135"/>
      <point x="535" y="171" name="fh01"/>
      <point x="567.5" y="202.5" type="qcurve" smooth="yes" name="inserted"/>
      <point x="600" y="234" name="fh02"/>
      <point x="637" y="321"/>
      <point x="637" y="371" type="qcurve" name="sh01"/>
      <point x="637" y="423"/>
      <point x="600" y="510" name="fh03"/>
      <point x="567.5" y="542.0" type="qcurve" smooth="yes" name="inserted"/>
      <point x="535" y="574" name="fh04"/>
      <point x="448" y="610"/>
      <point x="399" y="610" type="qcurve" name="sv02"/>
      <point x="350" y="610"/>
      <point x="264" y="574" name="fh05"/>
      <point x="232.0" y="542.0" type="qcurve" smooth="yes" name="inserted"/>
      <point x="200" y="510" name="fh06"/>
      <point x="163" y="423"/>
      <point x="163" y="371" type="qcurve" name="sh02"/>
      <point x="163" y="321"/>
      <point x="200" y="234" name="fh07"/>
      <point x="232.0" y="202.5" type="qcurve" smooth="yes" name="inserted"/>
      <point x="264" y="171" name="fh08"/>
      <point x="350" y="135"/>
    </contour>
    <contour>
      <point x="400" y="117" type="qcurve" name="sv03"/>
      <point x="346" y="117"/>
      <point x="252" y="155" name="fh09"/>
      <point x="217.5" y="189.0" type="qcurve" smooth="yes" name="inserted"/>
      <point x="183" y="223"/>
      <point x="143" y="317"/>
      <point x="143" y="372" type="qcurve" name="ah01"/>
      <point x="143" y="427"/>
      <point x="183" y="521"/>
      <point x="217.5" y="555.5" type="qcurve" smooth="yes" name="inserted"/>
      <point x="252" y="590" name="fh10"/>
      <point x="346" y="628"/>
      <point x="400" y="628" type="qcurve" name="av01"/>
      <point x="454" y="628"/>
      <point x="548" y="590" name="fv01"/>
      <point x="582.5" y="555.5" type="qcurve" smooth="yes" name="inserted"/>
      <point x="617" y="521" name="fh11"/>
      <point x="657" y="427"/>
      <point x="657" y="372" type="qcurve" name="sh03"/>
      <point x="657" y="317"/>
      <point x="617" y="223" name="fh12"/>
      <point x="582.5" y="189.0" type="qcurve" smooth="yes" name="inserted"/>
      <point x="548" y="155"/>
      <point x="454" y="117"/>
    </contour>
    <contour>
      <point x="490" y="464" type="line" name="sh04"/>
      <point x="490" y="507" type="line"/>
      <point x="474.0" y="516.0" name="inserted"/>
      <point x="438.5" y="525.0"/>
      <point x="419" y="525" type="qcurve" name="sv04"/>
      <point x="388" y="525"/>
      <point x="334" y="501" name="fh13"/>
      <point x="313.5" y="480.5" type="qcurve" smooth="yes" name="inserted"/>
      <point x="293" y="460" name="fv02"/>
      <point x="270" y="405"/>
      <point x="270" y="374" type="qcurve" name="sh05"/>
      <point x="270" y="343"/>
      <point x="293" y="289" name="fh14"/>
      <point x="313.5" y="269.0" type="qcurve" smooth="yes" name="inserted"/>
      <point x="334" y="249" name="fh15"/>
      <point x="388" y="226"/>
      <point x="418" y="226" type="qcurve" name="sv05"/>
      <point x="439.0" y="226.0" name="inserted"/>
      <point x="477.0" y="236.0"/>
      <point x="494" y="246" type="qcurve" name="iv03"/>
      <point x="501" y="236" type="line" name="sh06"/>
      <point x="483" y="225"/>
      <point x="442" y="213"/>
      <point x="419" y="213" type="qcurve" name="iv02"/>
      <point x="386" y="213"/>
      <point x="327" y="239"/>
      <point x="305.0" y="261.0" type="qcurve" smooth="yes" name="inserted"/>
      <point x="283" y="283" name="fh16"/>
      <point x="258" y="342"/>
      <point x="258" y="375" type="qcurve" name="ih02"/>
      <point x="258" y="409"/>
      <point x="283" y="468" name="fh17"/>
      <point x="305.0" y="490.0" type="qcurve" smooth="yes" name="inserted"/>
      <point x="327" y="512" name="fh18"/>
      <point x="386" y="537"/>
      <point x="419" y="537" type="qcurve" name="iv01"/>
      <point x="441.0" y="537.0" name="inserted"/>
      <point x="482.5" y="526.0"/>
      <point x="502" y="515" type="qcurve"/>
      <point x="502" y="464" type="line" name="ih01"/>
    </contour>
  </outline>
</glyph>
<glyph name="ordfeminine" format="1">
  <advance width="585"/>
  <unicode hex="00AA"/>
  <outline>
    <contour>
      <point x="83" y="442" type="qcurve" name="dh01"/>
      <point x="83" y="470"/>
      <point x="105" y="522" name="fh01"/>
      <point x="124.0" y="541.0" type="qcurve" smooth="yes" name="inserted"/>
      <point x="143" y="560" name="fh02"/>
      <point x="194" y="582"/>
      <point x="224" y="582" type="qcurve" name="av01"/>
      <point x="246" y="582"/>
      <point x="285" y="570"/>
      <point x="301.0" y="559.0" type="qcurve" smooth="yes" name="inserted"/>
      <point x="317" y="548"/>
      <point x="341" y="519"/>
      <point x="347" y="504" type="qcurve" name="sh02"/>
      <point x="347" y="522"/>
      <point x="349" y="558"/>
      <point x="350" y="576" type="qcurve" name="sv02"/>
      <point x="365" y="576" type="line"/>
      <point x="365" y="325" type="line" name="dh02"/>
      <point x="419" y="325" type="line" name="sh03"/>
      <point x="419" y="306" type="line"/>
      <point x="347" y="306" type="line" name="sh01"/>
      <point x="347" y="340" type="line"/>
      <point x="347" y="380" type="line" name="iv01"/>
      <point x="341" y="364"/>
      <point x="318" y="335"/>
      <point x="301.5" y="324.0" type="qcurve" smooth="yes" name="inserted"/>
      <point x="285" y="313"/>
      <point x="246" y="301"/>
      <point x="224" y="301" type="qcurve" name="sv01"/>
      <point x="194" y="301"/>
      <point x="143" y="323" name="fh03"/>
      <point x="124.0" y="342.0" type="qcurve" smooth="yes" name="inserted"/>
      <point x="105" y="361" name="fh04"/>
      <point x="83" y="412"/>
    </contour>
    <contour>
      <point x="103" y="442" type="qcurve" name="sh04"/>
      <point x="103" y="416"/>
      <point x="122" y="372"/>
      <point x="138.5" y="356.0" type="qcurve" smooth="yes" name="inserted"/>
      <point x="155" y="340"/>
      <point x="199" y="321"/>
      <point x="224" y="321" type="qcurve" name="sv03"/>
      <point x="249" y="321"/>
      <point x="294" y="340" name="fv01"/>
      <point x="310.5" y="356.0" type="qcurve" smooth="yes" name="inserted"/>
      <point x="327" y="372"/>
      <point x="346" y="416"/>
      <point x="346" y="442" type="qcurve" name="sh05"/>
      <point x="346" y="467"/>
      <point x="327" y="511"/>
      <point x="310.5" y="527.5" type="qcurve" smooth="yes" name="inserted"/>
      <point x="294" y="544"/>
      <point x="249" y="563"/>
      <point x="224" y="563" type="qcurve" name="sv04"/>
      <point x="199" y="563"/>
      <point x="155" y="544"/>
      <point x="138.5" y="527.5" type="qcurve" smooth="yes" name="inserted"/>
      <point x="122" y="511"/>
      <point x="103" y="467"/>
    </contour>
  </outline>
</glyph>
<glyph name="guillemotleft" format="1">
  <advance width="601"/>
  <unicode hex="00AB"/>
  <outline>
    <contour>
      <point x="459" y="77" type="line" name="sv01"/>
      <point x="288" y="239" type="line" name="sh01"/>
      <point x="331" y="280"/>
      <point x="416" y="359"/>
      <point x="459" y="400" type="qcurve" name="sv02"/>
      <point x="459" y="367" type="line" name="sh02"/>
      <point x="427" y="335"/>
      <point x="364" y="271"/>
      <point x="332" y="239" type="qcurve" name="sh03"/>
      <point x="364" y="206"/>
      <point x="427" y="141"/>
      <point x="459" y="109" type="qcurve" name="sh04"/>
    </contour>
    <contour>
      <point x="288" y="77" type="line" name="sv03"/>
      <point x="117" y="239" type="line" name="ah01"/>
      <point x="160" y="280"/>
      <point x="245" y="359"/>
      <point x="288" y="400" type="qcurve" name="sv04"/>
      <point x="288" y="367" type="line" name="sh05"/>
      <point x="256" y="335"/>
      <point x="193" y="271"/>
      <point x="161" y="239" type="qcurve" name="sh06"/>
      <point x="193" y="206"/>
      <point x="256" y="141"/>
      <point x="288" y="109" type="qcurve" name="sh07"/>
    </contour>
  </outline>
</glyph>
<glyph name="logicalnot" format="1">
  <advance width="559"/>
  <unicode hex="00AC"/>
  <outline>
    <contour>
      <point x="432" y="148" type="line" name="sh01"/>
      <point x="432" y="219" type="line"/>
      <point x="100" y="219" type="line" name="sh02"/>
      <point x="100" y="242" type="line" name="sv01"/>
      <point x="460" y="242" type="line"/>
      <point x="460" y="148" type="line" name="ah01"/>
    </contour>
  </outline>
</glyph>
<glyph name="plusminus" format="1">
  <advance width="524"/>
  <unicode hex="00B1"/>
  <outline>
    <contour>
      <point x="252" y="211" type="line" name="sv01"/>
      <point x="252" y="378" type="line" name="ah01"/>
      <point x="86" y="378" type="line" name="sh01"/>
      <point x="86" y="405" type="line" name="sv02"/>
      <point x="252" y="405" type="line" name="sh02"/>
      <point x="252" y="571" type="line" name="sv03"/>
      <point x="280" y="571" type="line"/>
      <point x="280" y="405" type="line" name="sh04"/>
      <point x="446" y="405" type="line"/>
      <point x="446" y="378" type="line" name="sh05"/>
      <point x="280" y="378" type="line" name="sh03"/>
      <point x="280" y="211" type="line"/>
    </contour>
    <contour>
      <point x="446" y="129" type="line"/>
      <point x="86" y="129" type="line" name="sv04"/>
      <point x="86" y="156" type="line" name="sh06"/>
      <point x="446" y="156" type="line" name="sh07"/>
    </contour>
  </outline>
</glyph>
<glyph name="threesuperior" format="1">
  <advance width="419"/>
  <unicode hex="00B3"/>
  <outline>
    <contour>
      <point x="135" y="554" type="qcurve" name="sh01"/>
      <point x="233" y="686" type="line" name="sh03"/>
      <point x="114" y="686" type="line" name="sv03"/>
      <point x="114" y="655" type="line" name="sh05"/>
      <point x="101" y="655" type="line" name="sh04"/>
      <point x="101" y="700" type="line" name="at01"/>
      <point x="259" y="700" type="line" name="sh02"/>
      <point x="166" y="577" type="line" name="sh06"/>
      <point x="188" y="577"/>
      <point x="225" y="562" name="fh01"/>
      <point x="239.0" y="548.5" type="qcurve" smooth="yes" name="inserted"/>
      <point x="253" y="535" name="mh01"/>
      <point x="269" y="499"/>
      <point x="269" y="478" type="qcurve" name="ah01"/>
      <point x="269" y="456"/>
      <point x="253" y="419" name="mh02"/>
      <point x="239.0" y="405.5" type="qcurve" smooth="yes" name="inserted"/>
      <point x="225" y="392" name="fh02"/>
      <point x="188" y="376"/>
      <point x="167" y="376" type="qcurve" name="sv01"/>
      <point x="145" y="376"/>
      <point x="107" y="394"/>
      <point x="92" y="409" type="qcurve" name="sh07"/>
      <point x="102" y="420" type="line" name="sv04"/>
      <point x="114" y="407"/>
      <point x="147" y="389"/>
      <point x="166" y="389" type="qcurve" name="sv05"/>
      <point x="184" y="389"/>
      <point x="217" y="404"/>
      <point x="229.0" y="416.0" type="qcurve" smooth="yes" name="inserted"/>
      <point x="241" y="428" name="fh03"/>
      <point x="256" y="460"/>
      <point x="256" y="478" type="qcurve" name="sh08"/>
      <point x="256" y="496"/>
      <point x="241" y="528"/>
      <point x="229.0" y="539.5" type="qcurve" smooth="yes" name="inserted"/>
      <point x="217" y="551" name="fh04"/>
      <point x="184" y="565"/>
      <point x="166" y="565" type="qcurve" name="sv02"/>
      <point x="157" y="565"/>
      <point x="142" y="559"/>
    </contour>
  </outline>
</glyph>
<glyph name="paragraph" format="1">
  <advance width="529"/>
  <unicode hex="00B6"/>
  <outline>
    <contour>
      <point x="229" y="0" type="line" name="sh01"/>
      <point x="201" y="0" type="line" name="ah01"/>
      <point x="201" y="423" type="line" name="iv01"/>
      <point x="167" y="423"/>
      <point x="107" y="448"/>
      <point x="85.0" y="470.0" type="qcurve" smooth="yes" name="inserted"/>
      <point x="63" y="492" name="fh01"/>
      <point x="38" y="552" name="fh02"/>
      <point x="38" y="586" type="qcurve" name="sh02"/>
      <point x="38" y="620"/>
      <point x="63" y="680" name="fh03"/>
      <point x="85.0" y="702.0" type="qcurve" smooth="yes" name="inserted"/>
      <point x="107" y="724"/>
      <point x="167" y="750"/>
      <point x="201" y="750" type="qcurve"/>
      <point x="492" y="750" type="line" name="at01"/>
      <point x="492" y="725" type="line" name="sh06"/>
      <point x="392" y="725" type="line"/>
      <point x="392" y="25" type="line" name="sh04"/>
      <point x="492" y="25" type="line" name="sh05"/>
      <point x="492" y="0" type="line" name="ab01"/>
      <point x="364" y="0" type="line" name="sh03"/>
      <point x="364" y="725" type="line" name="sv01"/>
      <point x="229" y="725" type="line"/>
    </contour>
  </outline>
</glyph>
<glyph name="cedilla" format="1">
  <advance width="452"/>
  <unicode hex="00B8"/>
  <outline>
    <contour>
      <point x="191" y="0" type="line" name="ah01"/>
      <point x="213" y="0" type="line" name="sh01"/>
      <point x="213" y="-6" type="line"/>
      <point x="213" y="-20"/>
      <point x="221" y="-37"/>
      <point x="227.0" y="-43.0" type="qcurve" smooth="yes" name="inserted"/>
      <point x="233" y="-49"/>
      <point x="248" y="-57"/>
      <point x="254" y="-61" type="qcurve"/>
      <point x="276" y="-76"/>
      <point x="295" y="-114"/>
      <point x="295" y="-130" type="qcurve" name="sh02"/>
      <point x="295" y="-180" name="fh01"/>
      <point x="244" y="-228"/>
      <point x="207" y="-228" type="qcurve" name="sv01"/>
      <point x="179" y="-228"/>
      <point x="132" y="-198"/>
      <point x="121" y="-167" type="qcurve" name="sh03"/>
      <point x="126" y="-165"/>
      <point x="137" y="-161"/>
      <point x="142" y="-159" type="qcurve" name="sh04"/>
      <point x="148" y="-179"/>
      <point x="182" y="-205"/>
      <point x="205" y="-205" type="qcurve" name="sv02"/>
      <point x="235" y="-205"/>
      <point x="271" y="-165"/>
      <point x="271" y="-136" type="qcurve" name="sh05"/>
      <point x="271" y="-110"/>
      <point x="246" y="-81"/>
      <point x="231.0" y="-70.5" type="qcurve" smooth="yes" name="inserted"/>
      <point x="216" y="-60"/>
      <point x="191" y="-39"/>
      <point x="191" y="-20" type="qcurve"/>
    </contour>
  </outline>
</glyph>
<glyph name="onesuperior" format="1">
  <advance width="254"/>
  <unicode hex="00B9"/>
  <outline>
    <contour>
      <point x="79" y="413" type="line" name="sh01"/>
      <point x="115" y="413" type="line" name="ah01"/>
      <point x="115" y="688" type="line"/>
      <point x="68" y="688" type="line" name="sh02"/>
      <point x="68" y="700" type="line" name="at01"/>
      <point x="128" y="700" type="line"/>
      <point x="128" y="413" type="line" name="sh03"/>
      <point x="165" y="413" type="line" name="sh04"/>
      <point x="165" y="401" type="line"/>
      <point x="79" y="401" type="line" name="sv01"/>
    </contour>
  </outline>
</glyph>
<glyph name="Eth" format="1">
  <advance width="632"/>
  <unicode hex="00D0"/>
  <outline>
    <contour>
      <point x="44" y="366" type="line" name="iv01"/>
      <point x="103" y="366" type="line" name="sh01"/>
      <point x="103" y="673" type="line"/>
      <point x="35" y="673" type="line" name="sh03"/>
      <point x="35" y="700" type="line" name="at01"/>
      <point x="245" y="700" type="line"/>
      <point x="317" y="700"/>
      <point x="445" y="651" name="fh01"/>
      <point x="493.0" y="605.5" type="qcurve" smooth="yes" name="inserted"/>
      <point x="541" y="560" name="fh02"/>
      <point x="597" y="430"/>
      <point x="597" y="350" type="qcurve" name="dh02"/>
      <point x="597" y="291"/>
      <point x="556" y="167" name="fv01"/>
      <point x="510.0" y="116.0" type="qcurve" smooth="yes" name="inserted"/>
      <point x="464" y="65" name="fh03"/>
      <point x="317" y="0"/>
      <point x="211" y="0" type="qcurve"/>
      <point x="35" y="0" type="line" name="ab01"/>
      <point x="35" y="27" type="line" name="sh02"/>
      <point x="103" y="27" type="line" name="dh01"/>
      <point x="103" y="339" type="line"/>
      <point x="44" y="339" type="line" name="sh04"/>
    </contour>
    <contour>
      <point x="131" y="673" type="line" name="sv01"/>
      <point x="131" y="366" type="line" name="sh06"/>
      <point x="346" y="366" type="line"/>
      <point x="346" y="339" type="line" name="ih01"/>
      <point x="131" y="339" type="line" name="sv02"/>
      <point x="131" y="28" type="line" name="sh05"/>
      <point x="223" y="28" type="line"/>
      <point x="314" y="28"/>
      <point x="445" y="85" name="fh04"/>
      <point x="487.5" y="131.0" type="qcurve" smooth="yes" name="inserted"/>
      <point x="530" y="177" name="fh05"/>
      <point x="570" y="292"/>
      <point x="570" y="350" type="qcurve" name="sh07"/>
      <point x="570" y="424"/>
      <point x="519" y="544" name="fh06"/>
      <point x="475.0" y="586.0" type="qcurve" smooth="yes" name="inserted"/>
      <point x="431" y="628"/>
      <point x="314" y="673"/>
      <point x="248" y="673" type="qcurve"/>
    </contour>
  </outline>
</glyph>
<glyph name="Thorn" format="1">
  <advance width="493"/>
  <unicode hex="00DE"/>
  <outline>
    <contour>
      <point x="35" y="27" type="line" name="sh01"/>
      <point x="106" y="27" type="line" name="dh01"/>
      <point x="106" y="673" type="line"/>
      <point x="35" y="673" type="line" name="sh02"/>
      <point x="35" y="700" type="line" name="at01"/>
      <point x="219" y="700" type="line"/>
      <point x="219" y="673" type="line" name="sh06"/>
      <point x="134" y="673" type="line" name="sv01"/>
      <point x="134" y="535" type="line" name="sh05"/>
      <point x="251" y="535" type="line"/>
      <point x="281" y="535"/>
      <point x="353" y="515" name="fh01"/>
      <point x="384.5" y="493.5" type="qcurve" smooth="yes" name="inserted"/>
      <point x="416" y="472" name="fh02"/>
      <point x="458" y="403"/>
      <point x="458" y="355" type="qcurve" name="dh02"/>
      <point x="458" y="270" name="fh03"/>
      <point x="348" y="170" name="fh04"/>
      <point x="245" y="170" type="qcurve"/>
      <point x="134" y="170" type="line" name="iv01"/>
      <point x="134" y="27" type="line" name="sh03"/>
      <point x="223" y="27" type="line" name="sh07"/>
      <point x="223" y="0" type="line"/>
      <point x="35" y="0" type="line" name="ab01"/>
    </contour>
    <contour>
      <point x="134" y="197" type="line" name="sh04"/>
      <point x="243" y="197" type="line"/>
      <point x="298" y="197"/>
      <point x="371" y="227" name="fh05"/>
      <point x="392.5" y="250.5" type="qcurve" smooth="yes" name="inserted"/>
      <point x="414" y="274" name="fv01"/>
      <point x="431" y="329"/>
      <point x="431" y="355" type="qcurve" name="sh08"/>
      <point x="431" y="385"/>
      <point x="402" y="441" name="fh06"/>
      <point x="377.0" y="462.0" type="qcurve" smooth="yes" name="inserted"/>
      <point x="352" y="483" name="fh07"/>
      <point x="284" y="508"/>
      <point x="244" y="508" type="qcurve"/>
      <point x="134" y="508" type="line" name="sv02"/>
    </contour>
  </outline>
</glyph>
<glyph name="germandbls" format="1">
  <advance width="545"/>
  <unicode hex="00DF"/>
  <outline>
    <contour>
      <point x="35" y="27" type="line" name="sh01"/>
      <point x="113" y="27" type="line" name="dh01"/>
      <point x="113" y="363" type="line"/>
      <point x="49" y="363" type="line" name="sv01"/>
      <point x="49" y="390" type="line" name="sh03"/>
      <point x="113" y="390" type="line" name="sh02"/>
      <point x="113" y="425" type="line"/>
      <point x="113" y="480"/>
      <point x="144" y="566" name="fh01"/>
      <point x="170.0" y="595.5" type="qcurve" smooth="yes" name="inserted"/>
      <point x="196" y="625" name="fh02"/>
      <point x="265" y="657"/>
      <point x="303" y="658" type="qcurve" name="av01"/>
      <point x="333" y="657"/>
      <point x="385" y="634" name="fh03"/>
      <point x="404.5" y="614.0" type="qcurve" smooth="yes" name="inserted"/>
      <point x="424" y="594" name="fh04"/>
      <point x="447" y="541"/>
      <point x="447" y="511" type="qcurve" name="ih01"/>
      <point x="447" y="469"/>
      <point x="402" y="405"/>
      <point x="365" y="389" type="qcurve" name="ih03"/>
      <point x="396" y="380" name="fh05"/>
      <point x="449" y="344" name="fh06"/>
      <point x="468.5" y="319.0" type="qcurve" smooth="yes" name="inserted"/>
      <point x="488" y="294" name="fh07"/>
      <point x="510" y="232"/>
      <point x="510" y="198" type="qcurve" name="dh02"/>
      <point x="510" y="155"/>
      <point x="477" y="80" name="fh08"/>
      <point x="449.0" y="52.0" type="qcurve" smooth="yes" name="inserted"/>
      <point x="421" y="24" name="fh09"/>
      <point x="345" y="-8"/>
      <point x="303" y="-8" type="qcurve" name="ab02"/>
      <point x="274" y="-8"/>
      <point x="224" y="6"/>
      <point x="201" y="19" type="qcurve" name="ih04"/>
      <point x="212" y="43" type="line" name="sv02"/>
      <point x="232.5" y="30.5" name="inserted"/>
      <point x="277.0" y="18.0"/>
      <point x="301" y="18" type="qcurve" name="sv03"/>
      <point x="338" y="18"/>
      <point x="405" y="47" name="fh10"/>
      <point x="429.5" y="71.5" type="qcurve" smooth="yes" name="inserted"/>
      <point x="454" y="96" name="fh11"/>
      <point x="483" y="162"/>
      <point x="483" y="198" type="qcurve" name="sh04"/>
      <point x="483" y="234"/>
      <point x="454" y="297" name="fh12"/>
      <point x="429.5" y="321.0" type="qcurve" smooth="yes" name="inserted"/>
      <point x="405" y="345" name="fh13"/>
      <point x="340" y="373"/>
      <point x="303" y="373" type="qcurve" name="ih02"/>
      <point x="303" y="387" type="line"/>
      <point x="303" y="401" type="line" name="iv01"/>
      <point x="327" y="401"/>
      <point x="370" y="417"/>
      <point x="385.5" y="431.0" type="qcurve" smooth="yes" name="inserted"/>
      <point x="401" y="445"/>
      <point x="420" y="484"/>
      <point x="420" y="508" type="qcurve" name="sh06"/>
      <point x="420" y="532"/>
      <point x="403" y="576" name="fh14"/>
      <point x="387.5" y="593.0" type="qcurve" smooth="yes" name="inserted"/>
      <point x="372" y="610" name="fh15"/>
      <point x="329" y="630"/>
      <point x="304" y="630" type="qcurve" name="sv04"/>
      <point x="271" y="630"/>
      <point x="212" y="602" name="fh16"/>
      <point x="189.5" y="575.5" type="qcurve" smooth="yes" name="inserted"/>
      <point x="167" y="549" name="fh17"/>
      <point x="141" y="474"/>
      <point x="141" y="428" type="qcurve"/>
      <point x="141" y="0" type="line" name="sh05"/>
      <point x="35" y="0" type="line" name="ab01"/>
    </contour>
  </outline>
</glyph>
<glyph name="eth" format="1">
  <advance width="461"/>
  <unicode hex="00F0"/>
  <outline>
    <contour>
      <point x="63" y="188" type="qcurve" name="sh01"/>
      <point x="63" y="153"/>
      <point x="89" y="92" name="fh01"/>
      <point x="111.5" y="69.5" type="qcurve" smooth="yes" name="inserted"/>
      <point x="134" y="47" name="fh02"/>
      <point x="196" y="21"/>
      <point x="231" y="21" type="qcurve" name="sv01"/>
      <point x="266" y="21"/>
      <point x="328" y="48" name="fh03"/>
      <point x="350.5" y="70.5" type="qcurve" smooth="yes" name="inserted"/>
      <point x="373" y="93" name="fh04"/>
      <point x="399" y="154"/>
      <point x="399" y="189" type="qcurve" name="sh02"/>
      <point x="399" y="224"/>
      <point x="372" y="286" name="fh05"/>
      <point x="349.0" y="308.5" type="qcurve" smooth="yes" name="inserted"/>
      <point x="326" y="331" name="fh06"/>
      <point x="265" y="356"/>
      <point x="230" y="356" type="qcurve" name="sv02"/>
      <point x="195" y="356"/>
      <point x="134" y="330" name="fv01"/>
      <point x="111.5" y="307.0" type="qcurve" smooth="yes" name="inserted"/>
      <point x="89" y="284" name="fv02"/>
      <point x="63" y="223"/>
    </contour>
    <contour>
      <point x="126" y="544" type="qcurve" name="ih02"/>
      <point x="144" y="563"/>
      <point x="180" y="602"/>
      <point x="198" y="621" type="qcurve" name="ih04"/>
      <point x="176" y="645"/>
      <point x="130" y="690"/>
      <point x="104" y="710" type="qcurve" name="ih01"/>
      <point x="109" y="715"/>
      <point x="117" y="723"/>
      <point x="121" y="728" type="qcurve" name="sv03"/>
      <point x="146" y="710"/>
      <point x="193" y="666"/>
      <point x="216" y="641" type="qcurve" name="ih05"/>
      <point x="233" y="659"/>
      <point x="265" y="694"/>
      <point x="281" y="712" type="qcurve" name="iv02"/>
      <point x="286" y="708"/>
      <point x="294" y="700"/>
      <point x="299" y="696" type="qcurve" name="ih03"/>
      <point x="282" y="678"/>
      <point x="249" y="641"/>
      <point x="232" y="622" type="qcurve" name="ih06"/>
      <point x="271" y="575" name="mh01"/>
      <point x="341" y="468" name="fh07"/>
      <point x="368.0" y="412.0" type="qcurve" smooth="yes" name="inserted"/>
      <point x="395" y="356" name="fh08"/>
      <point x="426" y="243" name="fh09"/>
      <point x="426" y="190" type="qcurve" name="dh02"/>
      <point x="426" y="149" name="fh10"/>
      <point x="396" y="78" name="fh11"/>
      <point x="370.0" y="51.5" type="qcurve" smooth="yes" name="inserted"/>
      <point x="344" y="25" name="fh12"/>
      <point x="272" y="-6"/>
      <point x="232" y="-6" type="qcurve" name="ab01"/>
      <point x="191" y="-6"/>
      <point x="120" y="23" name="fh13"/>
      <point x="93.0" y="49.5" type="qcurve" smooth="yes" name="inserted"/>
      <point x="66" y="76" name="fh14"/>
      <point x="35" y="146"/>
      <point x="35" y="187" type="qcurve" name="dh01"/>
      <point x="35" y="227"/>
      <point x="65" y="299" name="fh15"/>
      <point x="91.0" y="325.5" type="qcurve" smooth="yes" name="inserted"/>
      <point x="117" y="352" name="fh16"/>
      <point x="188" y="384"/>
      <point x="229" y="384" type="qcurve" name="at01"/>
      <point x="274" y="384"/>
      <point x="348" y="344" name="fv03"/>
      <point x="372" y="312" type="qcurve" name="ih07"/>
      <point x="359" y="365"/>
      <point x="285" y="517" name="mh02"/>
      <point x="213" y="602" type="qcurve" name="ih08"/>
      <point x="144" y="527" type="line" name="iv01"/>
      <point x="139" y="532"/>
      <point x="131" y="539"/>
    </contour>
  </outline>
</glyph>
<glyph name="quoteleft" format="1">
  <advance width="164"/>
  <unicode hex="2018"/>
  <outline>
    <contour>
      <point x="97" y="590" type="qcurve" name="sh01"/>
      <point x="93" y="585"/>
      <point x="87" y="576"/>
      <point x="84" y="571" type="qcurve" name="sv01"/>
      <point x="55" y="597"/>
      <point x="30" y="671"/>
      <point x="38" y="711" type="qcurve" name="ah01"/>
      <point x="44" y="709"/>
      <point x="58" y="706"/>
      <point x="64" y="704" type="qcurve" name="sh02"/>
      <point x="57" y="669"/>
      <point x="76" y="610"/>
    </contour>
  </outline>
</glyph>
<glyph name="quoteright" format="1">
  <advance width="164"/>
  <unicode hex="2019"/>
  <outline>
    <contour>
      <point x="67" y="571" type="qcurve" name="sv01"/>
      <point x="64" y="576"/>
      <point x="58" y="585"/>
      <point x="54" y="590" type="qcurve" name="sh02"/>
      <point x="75" y="610"/>
      <point x="94" y="669"/>
      <point x="87" y="704" type="qcurve" name="ah01"/>
      <point x="93" y="706"/>
      <point x="107" y="709"/>
      <point x="113" y="711" type="qcurve" name="sh01"/>
      <point x="121" y="671"/>
      <point x="96" y="597"/>
    </contour>
  </outline>
</glyph>
<glyph name="quotedblleft" format="1">
  <advance width="249"/>
  <unicode hex="201C"/>
  <outline>
    <contour>
      <point x="194" y="590" type="qcurve" name="sh02"/>
      <point x="190" y="585"/>
      <point x="184" y="576"/>
      <point x="181" y="571" type="qcurve" name="sv02"/>
      <point x="152" y="597"/>
      <point x="127" y="671"/>
      <point x="135" y="711" type="qcurve" name="sh01"/>
      <point x="141" y="709"/>
      <point x="154" y="706"/>
      <point x="161" y="704" type="qcurve" name="sh03"/>
      <point x="154" y="669"/>
      <point x="173" y="610"/>
    </contour>
    <contour>
      <point x="90" y="590" type="qcurve" name="sh05"/>
      <point x="86" y="585"/>
      <point x="80" y="576"/>
      <point x="77" y="571" type="qcurve" name="sv01"/>
      <point x="48" y="597"/>
      <point x="23" y="671"/>
      <point x="31" y="711" type="qcurve" name="sh04"/>
      <point x="37" y="709"/>
      <point x="50" y="706"/>
      <point x="57" y="704" type="qcurve" name="ah01"/>
      <point x="50" y="669"/>
      <point x="69" y="610"/>
    </contour>
  </outline>
</glyph>
<glyph name="guilsinglleft" format="1">
  <advance width="392"/>
  <unicode hex="2039"/>
  <outline>
    <contour>
      <point x="288" y="77" type="line" name="sv01"/>
      <point x="117" y="239" type="line" name="ah01"/>
      <point x="160" y="280"/>
      <point x="245" y="359"/>
      <point x="288" y="400" type="qcurve" name="sv02"/>
      <point x="288" y="367" type="line" name="sh01"/>
      <point x="256" y="335"/>
      <point x="193" y="271"/>
      <point x="161" y="239" type="qcurve" name="sh02"/>
      <point x="193" y="206"/>
      <point x="256" y="141"/>
      <point x="288" y="109" type="qcurve" name="sh03"/>
    </contour>
  </outline>
</glyph>
